{"glyphs":{"0":{"ha":1154,"x_min":0,"x_max":0,"o":"m 118 442 b 572 -16 118 142 329 -16 b 1036 446 815 -16 1036 137 b 581 910 1036 753 818 910 b 118 442 349 910 118 762 z m 219 444 b 577 826 219 688 383 826 b 935 444 771 826 935 688 b 576 67 935 203 772 67 b 219 444 381 67 219 203 z "},"1":{"ha":560,"x_min":0,"x_max":0,"o":"m 298 801 l 298 0 l 394 0 l 394 897 l 309 897 l 83 848 l 94 772 z "},"2":{"ha":955,"x_min":0,"x_max":0,"o":"m 110 123 l 110 0 l 869 0 l 869 83 l 206 83 l 206 133 b 459 373 206 218 212 293 l 589 415 b 848 672 778 476 848 535 b 526 910 848 837 721 910 b 153 833 368 910 244 872 l 186 747 b 525 824 299 793 406 824 b 747 671 665 824 747 780 b 567 500 747 598 726 553 l 426 453 b 110 123 181 372 110 293 z "},"3":{"ha":949,"x_min":0,"x_max":0,"o":"m 453 -16 b 856 253 678 -16 856 55 b 668 490 856 379 790 466 b 814 684 759 513 814 588 b 481 910 814 865 649 910 b 113 834 317 910 189 866 l 147 748 b 485 824 236 789 365 824 b 713 678 660 824 713 754 b 441 511 713 604 659 511 l 272 511 l 272 428 l 443 428 b 755 248 652 428 755 397 b 456 71 755 138 641 71 b 106 142 328 71 206 101 l 69 58 b 453 -16 150 19 285 -16 z "},"4":{"ha":956,"x_min":0,"x_max":0,"o":"m 658 188 l 658 0 l 752 0 l 752 188 l 921 188 l 921 270 l 752 270 l 752 897 l 606 897 l 63 290 l 63 188 z m 158 270 l 658 826 l 658 270 z "},"5":{"ha":960,"x_min":0,"x_max":0,"o":"m 478 -16 b 849 281 692 -16 849 72 b 527 572 849 488 703 572 b 253 519 383 572 298 538 l 270 817 l 774 817 l 774 897 l 194 897 l 168 469 l 225 422 b 516 488 299 450 376 488 b 751 276 680 487 751 405 b 480 70 751 128 638 70 b 144 142 362 70 251 94 l 111 55 b 478 -16 219 8 317 -16 z "},"6":{"ha":1026,"x_min":0,"x_max":0,"o":"m 536 -16 b 936 293 853 -16 936 167 b 586 589 936 522 734 589 b 216 433 413 589 282 515 b 215 454 215 440 215 447 b 576 824 215 639 306 824 b 843 767 686 824 759 801 l 880 851 b 579 910 824 876 726 910 b 118 442 284 910 118 728 b 536 -16 118 121 291 -16 z m 224 339 b 574 502 293 434 422 502 b 835 290 716 502 835 446 b 538 71 835 119 677 71 b 224 339 383 71 256 142 z "},"7":{"ha":803,"x_min":0,"x_max":0,"o":"m 163 32 l 247 -16 l 749 792 l 749 897 l 40 897 l 40 813 l 656 813 z "},"8":{"ha":1042,"x_min":0,"x_max":0,"o":"m 125 221 b 538 -16 125 42 323 -16 b 951 224 749 -16 951 53 b 715 463 951 350 856 430 b 906 668 809 489 906 544 b 538 910 906 819 751 910 b 170 668 328 910 170 819 b 362 453 170 545 253 492 b 125 221 221 426 125 350 z m 225 228 b 538 414 225 351 356 414 b 851 228 721 414 851 351 b 538 67 851 119 705 67 b 225 228 369 67 225 117 z m 270 667 b 538 828 270 770 377 828 b 806 667 698 828 806 770 b 538 496 806 557 674 496 b 270 667 404 496 270 556 z "},"9":{"ha":1040,"x_min":0,"x_max":0,"o":"m 463 -16 b 922 459 769 -16 922 169 b 505 910 922 776 744 910 b 104 589 308 910 104 813 b 448 313 104 375 289 313 b 825 460 654 313 772 388 l 825 453 b 463 71 825 215 704 71 b 175 128 347 71 265 90 l 140 44 b 463 -16 199 13 299 -16 z m 205 592 b 503 824 205 740 328 824 b 817 557 660 824 787 753 b 456 399 744 453 638 399 b 205 592 317 399 205 451 z "}," ":{"ha":375,"x_min":0,"x_max":0,"o":""},"A":{"ha":1133,"x_min":0,"x_max":0,"o":"m 52 23 l 139 -16 l 251 206 l 882 206 l 994 -16 l 1081 29 l 637 896 l 501 896 z m 296 293 l 567 827 l 838 293 z "},"À":{"ha":1133,"x_min":0,"x_max":0,"o":"m 52 23 l 139 -16 l 251 206 l 882 206 l 994 -16 l 1081 29 l 637 896 l 501 896 z m 292 1137 l 573 997 l 616 1066 l 339 1217 z m 296 293 l 567 827 l 838 293 z "},"Á":{"ha":1133,"x_min":0,"x_max":0,"o":"m 52 23 l 139 -16 l 251 206 l 882 206 l 994 -16 l 1081 29 l 637 896 l 501 896 z m 296 293 l 567 827 l 838 293 z m 499 1066 l 542 997 l 823 1137 l 776 1217 z "},"Â":{"ha":1133,"x_min":0,"x_max":0,"o":"m 52 23 l 139 -16 l 251 206 l 882 206 l 994 -16 l 1081 29 l 637 896 l 501 896 z m 296 293 l 567 827 l 838 293 z m 332 1042 l 393 988 l 567 1150 l 738 988 l 797 1044 l 615 1208 l 522 1208 z "},"Ã":{"ha":1133,"x_min":0,"x_max":0,"o":"m 52 23 l 139 -16 l 251 206 l 882 206 l 994 -16 l 1081 29 l 637 896 l 501 896 z m 296 293 l 567 827 l 838 293 z m 318 1051 l 385 1017 b 471 1089 403 1052 428 1089 b 555 1051 499 1089 526 1070 b 665 1010 585 1031 620 1010 b 819 1135 731 1010 785 1046 l 752 1168 b 665 1088 728 1113 703 1088 b 583 1124 638 1088 613 1106 b 468 1168 551 1146 515 1168 b 318 1051 406 1168 347 1133 z "},"Ä":{"ha":1133,"x_min":0,"x_max":0,"o":"m 52 23 l 139 -16 l 251 206 l 882 206 l 994 -16 l 1081 29 l 637 896 l 501 896 z m 296 293 l 567 827 l 838 293 z m 396 1018 l 504 1018 l 504 1127 l 396 1127 z m 631 1018 l 740 1018 l 740 1127 l 631 1127 z "},"Å":{"ha":1133,"x_min":0,"x_max":0,"o":"m 52 23 l 139 -16 l 251 206 l 882 206 l 994 -16 l 1081 29 l 637 896 l 501 896 z m 296 293 l 567 827 l 838 293 z m 411 1117 b 568 980 411 1039 469 980 b 726 1117 663 980 726 1039 b 568 1252 726 1194 661 1252 b 411 1117 475 1252 411 1194 z m 481 1117 b 568 1194 481 1155 511 1194 b 654 1117 625 1194 654 1155 b 568 1039 654 1078 624 1039 b 481 1117 511 1039 481 1078 z "},"Ā":{"ha":1133,"x_min":0,"x_max":0,"o":"m 52 23 l 139 -16 l 251 206 l 882 206 l 994 -16 l 1081 29 l 637 896 l 501 896 z m 296 293 l 567 827 l 838 293 z m 360 1031 l 770 1031 l 770 1110 l 360 1110 z "},"Ă":{"ha":1133,"x_min":0,"x_max":0,"o":"m 52 23 l 139 -16 l 251 206 l 882 206 l 994 -16 l 1081 29 l 637 896 l 501 896 z m 296 293 l 567 827 l 838 293 z m 352 1194 b 563 997 360 1084 415 997 b 772 1194 706 997 763 1092 l 696 1206 b 563 1072 678 1097 626 1072 b 429 1206 502 1072 447 1097 z "},"Ą":{"ha":1133,"x_min":0,"x_max":0,"o":"m 972 -290 b 1103 -270 1037 -290 1085 -276 l 1087 -206 b 973 -222 1058 -216 1013 -222 b 892 -142 938 -222 892 -199 b 1081 29 892 -92 943 -31 l 637 896 l 501 896 l 52 23 l 139 -16 l 251 206 l 881 206 l 966 38 b 813 -152 870 -12 813 -75 b 972 -290 813 -240 869 -290 z m 293 288 l 567 827 l 840 288 z "},"Ǻ":{"ha":1133,"x_min":0,"x_max":0,"o":"m 52 23 l 139 -16 l 251 206 l 882 206 l 994 -16 l 1081 29 l 637 896 l 501 896 z m 296 293 l 567 827 l 838 293 z m 393 1302 l 436 1233 l 717 1373 l 670 1453 z m 411 1096 b 568 959 411 1018 469 959 b 726 1096 663 959 726 1018 b 568 1231 726 1174 661 1231 b 411 1096 475 1231 411 1174 z m 481 1096 b 568 1174 481 1134 511 1174 b 654 1096 625 1174 654 1134 b 568 1018 654 1058 624 1018 b 481 1096 511 1018 481 1058 z "},"B":{"ha":1153,"x_min":0,"x_max":0,"o":"m 686 896 l 167 896 l 167 0 l 676 0 b 1042 242 899 0 1042 58 b 863 481 1042 377 944 463 b 1001 669 947 504 1001 574 b 686 896 1001 844 870 896 z m 266 88 l 266 424 l 688 424 b 938 244 864 424 938 347 b 688 88 938 132 855 88 z m 266 510 l 266 808 l 692 808 b 897 663 841 808 897 758 b 665 510 897 580 838 510 z "},"C":{"ha":1106,"x_min":0,"x_max":0,"o":"m 118 436 b 615 -16 118 139 299 -16 b 1005 81 769 -16 890 20 l 967 165 b 626 77 876 119 774 77 b 222 437 358 77 222 200 b 637 817 222 695 384 817 b 958 749 761 817 852 790 l 994 838 b 633 910 889 879 771 910 b 118 436 368 910 118 781 z "},"Ç":{"ha":1106,"x_min":0,"x_max":0,"o":"m 118 436 b 606 -16 118 142 295 -12 b 697 -144 685 -58 697 -108 b 606 -222 697 -195 663 -222 b 487 -204 569 -222 515 -214 l 470 -270 b 600 -290 490 -276 542 -290 b 776 -152 714 -290 776 -240 b 711 -11 776 -97 758 -51 b 1005 81 821 1 915 33 l 967 165 b 626 77 876 119 774 77 b 222 437 358 77 222 200 b 637 817 222 695 384 817 b 958 749 761 817 852 790 l 994 838 b 633 910 889 879 771 910 b 118 436 368 910 118 781 z "},"Ć":{"ha":1106,"x_min":0,"x_max":0,"o":"m 118 436 b 615 -16 118 139 299 -16 b 1005 81 769 -16 890 20 l 967 165 b 626 77 876 119 774 77 b 222 437 358 77 222 200 b 637 817 222 695 384 817 b 958 749 761 817 852 790 l 994 838 b 633 910 889 879 771 910 b 118 436 368 910 118 781 z m 491 1066 l 534 997 l 815 1137 l 768 1217 z "},"Ĉ":{"ha":1106,"x_min":0,"x_max":0,"o":"m 118 436 b 615 -16 118 139 299 -16 b 1005 81 769 -16 890 20 l 967 165 b 626 77 876 119 774 77 b 222 437 358 77 222 200 b 637 817 222 695 384 817 b 958 749 761 817 852 790 l 994 838 b 633 910 889 879 771 910 b 118 436 368 910 118 781 z m 374 1042 l 435 988 l 609 1150 l 781 988 l 839 1044 l 658 1208 l 564 1208 z "},"Ċ":{"ha":1106,"x_min":0,"x_max":0,"o":"m 118 436 b 615 -16 118 139 299 -16 b 1005 81 769 -16 890 20 l 967 165 b 626 77 876 119 774 77 b 222 437 358 77 222 200 b 637 817 222 695 384 817 b 958 749 761 817 852 790 l 994 838 b 633 910 889 879 771 910 b 118 436 368 910 118 781 z m 558 1018 l 667 1018 l 667 1127 l 558 1127 z "},"Č":{"ha":1106,"x_min":0,"x_max":0,"o":"m 118 436 b 615 -16 118 139 299 -16 b 1005 81 769 -16 890 20 l 967 165 b 626 77 876 119 774 77 b 222 437 358 77 222 200 b 637 817 222 695 384 817 b 958 749 761 817 852 790 l 994 838 b 633 910 889 879 771 910 b 118 436 368 910 118 781 z m 387 1182 l 568 1018 l 662 1018 l 851 1184 l 796 1239 l 622 1076 l 452 1239 z "},"D":{"ha":1189,"x_min":0,"x_max":0,"o":"m 554 896 l 167 896 l 167 0 l 549 0 b 1071 440 892 0 1071 126 b 554 896 1071 741 910 896 z m 266 88 l 266 806 l 563 806 b 967 441 865 806 967 663 b 570 88 967 235 874 88 z "},"Ď":{"ha":1189,"x_min":0,"x_max":0,"o":"m 554 896 l 167 896 l 167 0 l 549 0 b 1071 440 892 0 1071 126 b 554 896 1071 741 910 896 z m 266 88 l 266 806 l 563 806 b 967 441 865 806 967 663 b 570 88 967 235 874 88 z m 331 1182 l 512 1018 l 606 1018 l 795 1184 l 740 1239 l 565 1076 l 396 1239 z "},"E":{"ha":1042,"x_min":0,"x_max":0,"o":"m 167 896 l 167 0 l 959 0 l 959 90 l 266 90 l 266 408 l 840 408 l 840 497 l 266 497 l 266 806 l 945 806 l 945 896 z "},"È":{"ha":1042,"x_min":0,"x_max":0,"o":"m 167 896 l 167 0 l 959 0 l 959 90 l 266 90 l 266 408 l 840 408 l 840 497 l 266 497 l 266 806 l 945 806 l 945 896 z m 362 1137 l 642 997 l 685 1066 l 408 1217 z "},"É":{"ha":1042,"x_min":0,"x_max":0,"o":"m 167 896 l 167 0 l 959 0 l 959 90 l 266 90 l 266 408 l 840 408 l 840 497 l 266 497 l 266 806 l 945 806 l 945 896 z m 465 1066 l 508 997 l 789 1137 l 742 1217 z "},"Ê":{"ha":1042,"x_min":0,"x_max":0,"o":"m 167 896 l 167 0 l 959 0 l 959 90 l 266 90 l 266 408 l 840 408 l 840 497 l 266 497 l 266 806 l 945 806 l 945 896 z m 321 1042 l 382 988 l 556 1150 l 727 988 l 785 1044 l 604 1208 l 510 1208 z "},"Ë":{"ha":1042,"x_min":0,"x_max":0,"o":"m 167 896 l 167 0 l 959 0 l 959 90 l 266 90 l 266 408 l 840 408 l 840 497 l 266 497 l 266 806 l 945 806 l 945 896 z m 398 1018 l 506 1018 l 506 1127 l 398 1127 z m 633 1018 l 742 1018 l 742 1127 l 633 1127 z "},"Ē":{"ha":1042,"x_min":0,"x_max":0,"o":"m 167 896 l 167 0 l 959 0 l 959 90 l 266 90 l 266 408 l 840 408 l 840 497 l 266 497 l 266 806 l 945 806 l 945 896 z m 360 1031 l 770 1031 l 770 1110 l 360 1110 z "},"Ĕ":{"ha":1042,"x_min":0,"x_max":0,"o":"m 167 896 l 167 0 l 959 0 l 959 90 l 266 90 l 266 408 l 840 408 l 840 497 l 266 497 l 266 806 l 945 806 l 945 896 z m 364 1194 b 574 997 372 1084 427 997 b 784 1194 718 997 775 1092 l 708 1206 b 574 1072 690 1097 638 1072 b 441 1206 514 1072 459 1097 z "},"Ė":{"ha":1042,"x_min":0,"x_max":0,"o":"m 167 896 l 167 0 l 959 0 l 959 90 l 266 90 l 266 408 l 840 408 l 840 497 l 266 497 l 266 806 l 945 806 l 945 896 z m 521 1018 l 629 1018 l 629 1127 l 521 1127 z "},"Ę":{"ha":1042,"x_min":0,"x_max":0,"o":"m 862 -290 b 978 -270 919 -290 962 -276 l 961 -206 b 863 -222 936 -216 897 -222 b 788 -142 824 -222 788 -201 b 956 0 788 -100 833 -44 l 959 0 l 959 90 l 266 90 l 266 408 l 840 408 l 840 497 l 266 497 l 266 806 l 945 806 l 945 896 l 167 896 l 167 0 l 824 0 b 709 -153 742 -39 709 -91 b 862 -290 709 -240 764 -290 z "},"Ě":{"ha":1042,"x_min":0,"x_max":0,"o":"m 167 896 l 167 0 l 959 0 l 959 90 l 266 90 l 266 408 l 840 408 l 840 497 l 266 497 l 266 806 l 945 806 l 945 896 z m 337 1182 l 518 1018 l 612 1018 l 801 1184 l 746 1239 l 572 1076 l 402 1239 z "},"F":{"ha":973,"x_min":0,"x_max":0,"o":"m 167 896 l 167 0 l 266 0 l 266 374 l 802 374 l 802 463 l 266 463 l 266 806 l 924 806 l 924 896 z "},"G":{"ha":1192,"x_min":0,"x_max":0,"o":"m 118 444 b 625 -16 118 118 331 -16 b 1040 72 818 -16 958 38 l 1040 455 l 599 455 l 599 365 l 940 365 l 940 138 b 640 77 868 112 776 77 b 222 443 382 77 222 187 b 644 817 222 692 400 817 b 974 747 733 817 850 797 l 1008 842 b 641 910 897 883 788 910 b 118 444 366 910 118 768 z "},"Ĝ":{"ha":1192,"x_min":0,"x_max":0,"o":"m 118 444 b 625 -16 118 118 331 -16 b 1040 72 818 -16 958 38 l 1040 455 l 599 455 l 599 365 l 940 365 l 940 138 b 640 77 868 112 776 77 b 222 443 382 77 222 187 b 644 817 222 692 400 817 b 974 747 733 817 850 797 l 1008 842 b 641 910 897 883 788 910 b 118 444 366 910 118 768 z m 387 1042 l 448 988 l 622 1150 l 793 988 l 851 1044 l 670 1208 l 576 1208 z "},"Ğ":{"ha":1192,"x_min":0,"x_max":0,"o":"m 118 444 b 625 -16 118 118 331 -16 b 1040 72 818 -16 958 38 l 1040 455 l 599 455 l 599 365 l 940 365 l 940 138 b 640 77 868 112 776 77 b 222 443 382 77 222 187 b 644 817 222 692 400 817 b 974 747 733 817 850 797 l 1008 842 b 641 910 897 883 788 910 b 118 444 366 910 118 768 z m 407 1194 b 617 997 415 1084 470 997 b 827 1194 761 997 818 1092 l 751 1206 b 617 1072 733 1097 681 1072 b 484 1206 557 1072 502 1097 z "},"Ġ":{"ha":1192,"x_min":0,"x_max":0,"o":"m 118 444 b 625 -16 118 118 331 -16 b 1040 72 818 -16 958 38 l 1040 455 l 599 455 l 599 365 l 940 365 l 940 138 b 640 77 868 112 776 77 b 222 443 382 77 222 187 b 644 817 222 692 400 817 b 974 747 733 817 850 797 l 1008 842 b 641 910 897 883 788 910 b 118 444 366 910 118 768 z m 560 1018 l 669 1018 l 669 1127 l 560 1127 z "},"Ģ":{"ha":1192,"x_min":0,"x_max":0,"o":"m 118 444 b 625 -16 118 118 331 -16 b 1040 72 818 -16 958 38 l 1040 455 l 599 455 l 599 365 l 940 365 l 940 138 b 640 77 868 112 776 77 b 222 443 382 77 222 187 b 644 817 222 692 400 817 b 974 747 733 817 850 797 l 1008 842 b 641 910 897 883 788 910 b 118 444 366 910 118 768 z m 563 -360 l 612 -376 l 676 -215 l 676 -79 l 564 -79 l 564 -211 l 601 -211 z "},"H":{"ha":1271,"x_min":0,"x_max":0,"o":"m 167 896 l 167 0 l 266 0 l 266 397 l 1005 397 l 1005 0 l 1104 0 l 1104 896 l 1005 896 l 1005 487 l 266 487 l 266 896 z "},"Ĥ":{"ha":1271,"x_min":0,"x_max":0,"o":"m 167 896 l 167 0 l 266 0 l 266 397 l 1005 397 l 1005 0 l 1104 0 l 1104 896 l 1005 896 l 1005 487 l 266 487 l 266 896 z m 407 1042 l 468 988 l 642 1150 l 813 988 l 872 1044 l 690 1208 l 597 1208 z "},"I":{"ha":433,"x_min":0,"x_max":0,"o":"m 167 896 l 167 0 l 266 0 l 266 896 z "},"Ì":{"ha":433,"x_min":0,"x_max":0,"o":"m 167 896 l 167 0 l 266 0 l 266 896 z m -58 1137 l 222 997 l 265 1066 l -12 1217 z "},"Í":{"ha":433,"x_min":0,"x_max":0,"o":"m 167 896 l 167 0 l 266 0 l 266 896 z m 159 1066 l 202 997 l 483 1137 l 436 1217 z "},"Î":{"ha":433,"x_min":0,"x_max":0,"o":"m 167 896 l 167 0 l 266 0 l 266 896 z m -20 1042 l 41 988 l 215 1150 l 386 988 l 444 1044 l 263 1208 l 169 1208 z "},"Ï":{"ha":433,"x_min":0,"x_max":0,"o":"m 167 896 l 167 0 l 266 0 l 266 896 z m 43 1018 l 151 1018 l 151 1127 l 43 1127 z m 278 1018 l 387 1018 l 387 1127 l 278 1127 z "},"Ĩ":{"ha":433,"x_min":0,"x_max":0,"o":"m 167 896 l 167 0 l 266 0 l 266 896 z m -40 1051 l 26 1017 b 113 1089 44 1052 69 1089 b 197 1051 141 1089 167 1070 b 307 1010 227 1031 262 1010 b 461 1135 373 1010 426 1046 l 394 1168 b 306 1088 370 1113 345 1088 b 225 1124 279 1088 254 1106 b 110 1168 193 1146 157 1168 b -40 1051 47 1168 -11 1133 z "},"Ī":{"ha":433,"x_min":0,"x_max":0,"o":"m 167 896 l 167 0 l 266 0 l 266 896 z m 6 1031 l 416 1031 l 416 1110 l 6 1110 z "},"Ĭ":{"ha":433,"x_min":0,"x_max":0,"o":"m 167 896 l 167 0 l 266 0 l 266 896 z m 3 1194 b 213 997 10 1084 66 997 b 423 1194 357 997 414 1092 l 347 1206 b 213 1072 328 1097 277 1072 b 80 1206 153 1072 98 1097 z "},"Į":{"ha":433,"x_min":0,"x_max":0,"o":"m 192 -290 b 323 -270 256 -290 304 -276 l 306 -206 b 192 -222 277 -216 232 -222 b 111 -142 157 -222 111 -199 b 266 0 111 -100 153 -49 l 266 896 l 167 896 l 167 19 b 32 -152 82 -27 32 -82 b 192 -290 32 -240 89 -290 z "},"İ":{"ha":433,"x_min":0,"x_max":0,"o":"m 167 896 l 167 0 l 266 0 l 266 896 z m 159 1018 l 267 1018 l 267 1127 l 159 1127 z "},"J":{"ha":863,"x_min":0,"x_max":0,"o":"m 72 154 l 28 67 b 347 -16 92 23 196 -16 b 717 332 528 -16 717 42 l 717 897 l 617 897 l 617 336 b 349 77 617 133 491 77 b 72 154 211 77 131 121 z "},"Ĵ":{"ha":863,"x_min":0,"x_max":0,"o":"m 72 154 l 28 67 b 347 -16 92 23 196 -16 b 717 332 528 -16 717 42 l 717 897 l 617 897 l 617 336 b 349 77 617 133 491 77 b 72 154 211 77 131 121 z m 431 1042 l 492 988 l 665 1150 l 837 988 l 895 1044 l 714 1208 l 620 1208 z "},"K":{"ha":1173,"x_min":0,"x_max":0,"o":"m 652 474 l 1047 -16 l 1119 43 l 724 535 l 1089 843 l 1028 911 l 266 264 l 266 896 l 167 896 l 167 0 l 266 0 l 266 149 z "},"Ķ":{"ha":1173,"x_min":0,"x_max":0,"o":"m 652 474 l 1047 -16 l 1119 43 l 724 535 l 1089 843 l 1028 911 l 266 264 l 266 896 l 167 896 l 167 0 l 266 0 l 266 149 z m 566 -357 l 615 -373 l 679 -212 l 679 -76 l 567 -76 l 567 -208 l 603 -208 z "},"L":{"ha":935,"x_min":0,"x_max":0,"o":"m 167 896 l 167 0 l 920 0 l 920 90 l 266 90 l 266 896 z "},"Ĺ":{"ha":935,"x_min":0,"x_max":0,"o":"m 167 896 l 167 0 l 920 0 l 920 90 l 266 90 l 266 896 z m 167 1066 l 210 997 l 491 1137 l 444 1217 z "},"Ļ":{"ha":935,"x_min":0,"x_max":0,"o":"m 167 896 l 167 0 l 920 0 l 920 90 l 266 90 l 266 896 z m 488 -360 l 537 -376 l 601 -215 l 601 -79 l 489 -79 l 489 -211 l 526 -211 z "},"Ľ":{"ha":935,"x_min":0,"x_max":0,"o":"m 167 896 l 167 0 l 920 0 l 920 90 l 266 90 l 266 896 z m 594 626 l 678 615 l 728 891 l 630 905 z "},"M":{"ha":1451,"x_min":0,"x_max":0,"o":"m 167 896 l 167 0 l 265 0 l 265 803 l 672 85 l 797 85 l 1187 797 l 1187 0 l 1285 0 l 1285 896 l 1139 896 l 738 157 l 326 896 z "},"N":{"ha":1229,"x_min":0,"x_max":0,"o":"m 167 896 l 167 0 l 265 0 l 265 785 l 924 0 l 1063 0 l 1063 896 l 965 896 l 965 99 l 300 896 z "},"Ñ":{"ha":1229,"x_min":0,"x_max":0,"o":"m 167 896 l 167 0 l 265 0 l 265 785 l 924 0 l 1063 0 l 1063 896 l 965 896 l 965 99 l 300 896 z m 386 1051 l 453 1017 b 539 1089 471 1052 496 1089 b 623 1051 567 1089 594 1070 b 733 1010 653 1031 688 1010 b 888 1135 799 1010 853 1046 l 820 1168 b 733 1088 797 1113 772 1088 b 651 1124 706 1088 681 1106 b 536 1168 619 1146 583 1168 b 386 1051 474 1168 415 1133 z "},"Ń":{"ha":1229,"x_min":0,"x_max":0,"o":"m 167 896 l 167 0 l 265 0 l 265 785 l 924 0 l 1063 0 l 1063 896 l 965 896 l 965 99 l 300 896 z m 535 1066 l 578 997 l 858 1137 l 812 1217 z "},"Ņ":{"ha":1229,"x_min":0,"x_max":0,"o":"m 167 896 l 167 0 l 265 0 l 265 785 l 924 0 l 1063 0 l 1063 896 l 965 896 l 965 99 l 300 896 z m 561 -360 l 610 -376 l 674 -215 l 674 -79 l 562 -79 l 562 -211 l 599 -211 z "},"Ň":{"ha":1229,"x_min":0,"x_max":0,"o":"m 167 896 l 167 0 l 265 0 l 265 785 l 924 0 l 1063 0 l 1063 896 l 965 896 l 965 99 l 300 896 z m 403 1182 l 585 1018 l 678 1018 l 868 1184 l 813 1239 l 638 1076 l 469 1239 z "},"O":{"ha":1293,"x_min":0,"x_max":0,"o":"m 118 442 b 641 -16 118 113 353 -16 b 1175 446 928 -16 1175 120 b 650 910 1175 769 926 910 b 118 442 385 910 118 776 z m 224 444 b 647 817 224 699 412 817 b 1069 444 879 817 1069 699 b 640 77 1069 189 883 77 b 224 444 401 77 224 190 z "},"Ò":{"ha":1293,"x_min":0,"x_max":0,"o":"m 118 442 b 641 -16 118 113 353 -16 b 1175 446 928 -16 1175 120 b 650 910 1175 769 926 910 b 118 442 385 910 118 776 z m 224 444 b 647 817 224 699 412 817 b 1069 444 879 817 1069 699 b 640 77 1069 189 883 77 b 224 444 401 77 224 190 z m 453 1137 l 733 997 l 776 1066 l 499 1217 z "},"Ó":{"ha":1293,"x_min":0,"x_max":0,"o":"m 118 442 b 641 -16 118 113 353 -16 b 1175 446 928 -16 1175 120 b 650 910 1175 769 926 910 b 118 442 385 910 118 776 z m 224 444 b 647 817 224 699 412 817 b 1069 444 879 817 1069 699 b 640 77 1069 189 883 77 b 224 444 401 77 224 190 z m 567 1066 l 610 997 l 891 1137 l 844 1217 z "},"Ô":{"ha":1293,"x_min":0,"x_max":0,"o":"m 118 442 b 641 -16 118 113 353 -16 b 1175 446 928 -16 1175 120 b 650 910 1175 769 926 910 b 118 442 385 910 118 776 z m 224 444 b 647 817 224 699 412 817 b 1069 444 879 817 1069 699 b 640 77 1069 189 883 77 b 224 444 401 77 224 190 z m 414 1042 l 475 988 l 649 1150 l 820 988 l 878 1044 l 697 1208 l 603 1208 z "},"Õ":{"ha":1293,"x_min":0,"x_max":0,"o":"m 118 442 b 641 -16 118 113 353 -16 b 1175 446 928 -16 1175 120 b 650 910 1175 769 926 910 b 118 442 385 910 118 776 z m 224 444 b 647 817 224 699 412 817 b 1069 444 879 817 1069 699 b 640 77 1069 189 883 77 b 224 444 401 77 224 190 z m 392 1051 l 459 1017 b 545 1089 477 1052 502 1089 b 629 1051 574 1089 600 1070 b 740 1010 660 1031 694 1010 b 894 1135 806 1010 859 1046 l 826 1168 b 739 1088 803 1113 778 1088 b 658 1124 712 1088 687 1106 b 542 1168 626 1146 590 1168 b 392 1051 480 1168 422 1133 z "},"Ö":{"ha":1293,"x_min":0,"x_max":0,"o":"m 118 442 b 641 -16 118 113 353 -16 b 1175 446 928 -16 1175 120 b 650 910 1175 769 926 910 b 118 442 385 910 118 776 z m 224 444 b 647 817 224 699 412 817 b 1069 444 879 817 1069 699 b 640 77 1069 189 883 77 b 224 444 401 77 224 190 z m 478 1018 l 587 1018 l 587 1127 l 478 1127 z m 714 1018 l 822 1018 l 822 1127 l 714 1127 z "},"Ō":{"ha":1293,"x_min":0,"x_max":0,"o":"m 118 442 b 641 -16 118 113 353 -16 b 1175 446 928 -16 1175 120 b 650 910 1175 769 926 910 b 118 442 385 910 118 776 z m 224 444 b 647 817 224 699 412 817 b 1069 444 879 817 1069 699 b 640 77 1069 189 883 77 b 224 444 401 77 224 190 z m 444 1031 l 853 1031 l 853 1110 l 444 1110 z "},"Ŏ":{"ha":1293,"x_min":0,"x_max":0,"o":"m 118 442 b 641 -16 118 113 353 -16 b 1175 446 928 -16 1175 120 b 650 910 1175 769 926 910 b 118 442 385 910 118 776 z m 224 444 b 647 817 224 699 412 817 b 1069 444 879 817 1069 699 b 640 77 1069 189 883 77 b 224 444 401 77 224 190 z m 439 1194 b 649 997 447 1084 502 997 b 859 1194 793 997 850 1092 l 783 1206 b 649 1072 765 1097 713 1072 b 516 1206 589 1072 534 1097 z "},"Ő":{"ha":1293,"x_min":0,"x_max":0,"o":"m 118 442 b 641 -16 118 113 353 -16 b 1175 446 928 -16 1175 120 b 650 910 1175 769 926 910 b 118 442 385 910 118 776 z m 224 444 b 647 817 224 699 412 817 b 1069 444 879 817 1069 699 b 640 77 1069 189 883 77 b 224 444 401 77 224 190 z m 436 1043 l 497 990 l 711 1201 l 644 1265 z m 710 1056 l 767 997 l 999 1189 l 937 1258 z "},"P":{"ha":1101,"x_min":0,"x_max":0,"o":"m 685 896 l 167 896 l 167 0 l 266 0 l 266 250 l 685 250 b 1049 563 905 250 1049 347 b 685 896 1049 773 925 896 z m 266 340 l 266 806 l 692 806 b 945 565 858 806 945 716 b 692 340 945 435 877 340 z "},"Q":{"ha":1293,"x_min":0,"x_max":0,"o":"m 668 299 l 781 92 b 640 77 737 82 690 77 b 224 444 401 77 224 190 b 647 817 224 699 412 817 b 1069 444 879 817 1069 699 b 867 119 1069 278 990 172 l 746 342 z m 118 442 b 641 -16 118 113 353 -16 b 827 6 706 -16 769 -9 l 933 -190 l 1010 -147 l 913 34 b 1175 446 1068 99 1175 231 b 650 910 1175 769 926 910 b 118 442 385 910 118 776 z "},"R":{"ha":1171,"x_min":0,"x_max":0,"o":"m 803 301 l 956 -16 l 1044 26 l 894 331 b 1053 588 992 376 1053 460 b 694 896 1053 774 924 896 l 167 896 l 167 0 l 266 0 l 266 292 l 694 292 b 803 301 733 292 769 295 z m 266 381 l 266 806 l 678 806 b 949 589 860 806 949 725 b 678 381 949 471 878 381 z "},"Ŕ":{"ha":1171,"x_min":0,"x_max":0,"o":"m 803 301 l 956 -16 l 1044 26 l 894 331 b 1053 588 992 376 1053 460 b 694 896 1053 774 924 896 l 167 896 l 167 0 l 266 0 l 266 292 l 694 292 b 803 301 733 292 769 295 z m 266 381 l 266 806 l 678 806 b 949 589 860 806 949 725 b 678 381 949 471 878 381 z m 465 1066 l 508 997 l 788 1137 l 742 1217 z "},"Ŗ":{"ha":1171,"x_min":0,"x_max":0,"o":"m 803 301 l 956 -16 l 1044 26 l 894 331 b 1053 588 992 376 1053 460 b 694 896 1053 774 924 896 l 167 896 l 167 0 l 266 0 l 266 292 l 694 292 b 803 301 733 292 769 295 z m 266 381 l 266 806 l 678 806 b 949 589 860 806 949 725 b 678 381 949 471 878 381 z m 532 -360 l 581 -376 l 645 -215 l 645 -79 l 533 -79 l 533 -211 l 569 -211 z "},"Ř":{"ha":1171,"x_min":0,"x_max":0,"o":"m 803 301 l 956 -16 l 1044 26 l 894 331 b 1053 588 992 376 1053 460 b 694 896 1053 774 924 896 l 167 896 l 167 0 l 266 0 l 266 292 l 694 292 b 803 301 733 292 769 295 z m 266 381 l 266 806 l 678 806 b 949 589 860 806 949 725 b 678 381 949 471 878 381 z m 347 1182 l 528 1018 l 622 1018 l 811 1184 l 756 1239 l 581 1076 l 412 1239 z "},"S":{"ha":1084,"x_min":0,"x_max":0,"o":"m 157 161 l 118 71 b 527 -16 224 15 362 -16 b 980 269 815 -16 980 63 b 584 514 980 483 777 503 b 242 656 409 524 242 525 b 557 817 242 768 341 817 b 890 763 694 817 804 787 l 920 853 b 553 910 840 880 710 910 b 140 656 315 910 140 837 b 558 417 140 435 358 426 b 883 265 727 409 883 401 b 533 77 883 127 749 77 b 157 161 386 77 277 103 z "},"Ś":{"ha":1084,"x_min":0,"x_max":0,"o":"m 157 161 l 118 71 b 527 -16 224 15 362 -16 b 980 269 815 -16 980 63 b 584 514 980 483 777 503 b 242 656 409 524 242 525 b 557 817 242 768 341 817 b 890 763 694 817 804 787 l 920 853 b 553 910 840 880 710 910 b 140 656 315 910 140 837 b 558 417 140 435 358 426 b 883 265 727 409 883 401 b 533 77 883 127 749 77 b 157 161 386 77 277 103 z m 455 1066 l 498 997 l 778 1137 l 732 1217 z "},"Ŝ":{"ha":1084,"x_min":0,"x_max":0,"o":"m 157 161 l 118 71 b 527 -16 224 15 362 -16 b 980 269 815 -16 980 63 b 584 514 980 483 777 503 b 242 656 409 524 242 525 b 557 817 242 768 341 817 b 890 763 694 817 804 787 l 920 853 b 553 910 840 880 710 910 b 140 656 315 910 140 837 b 558 417 140 435 358 426 b 883 265 727 409 883 401 b 533 77 883 127 749 77 b 157 161 386 77 277 103 z m 317 1042 l 378 988 l 552 1150 l 724 988 l 782 1044 l 601 1208 l 507 1208 z "},"Ş":{"ha":1084,"x_min":0,"x_max":0,"o":"m 157 161 l 118 71 b 527 -16 224 15 362 -16 l 532 -16 b 623 -144 611 -58 623 -108 b 533 -222 623 -195 590 -222 b 413 -204 495 -222 442 -214 l 397 -270 b 526 -290 416 -276 469 -290 b 702 -152 640 -290 702 -240 b 638 -11 702 -97 684 -51 b 980 269 857 8 980 91 b 584 514 980 483 777 503 b 242 656 409 524 242 525 b 557 817 242 768 341 817 b 890 763 694 817 804 787 l 920 853 b 553 910 840 880 710 910 b 140 656 315 910 140 837 b 558 417 140 435 358 426 b 883 265 727 409 883 401 b 533 77 883 127 749 77 b 157 161 386 77 277 103 z "},"Š":{"ha":1084,"x_min":0,"x_max":0,"o":"m 157 161 l 118 71 b 527 -16 224 15 362 -16 b 980 269 815 -16 980 63 b 584 514 980 483 777 503 b 242 656 409 524 242 525 b 557 817 242 768 341 817 b 890 763 694 817 804 787 l 920 853 b 553 910 840 880 710 910 b 140 656 315 910 140 837 b 558 417 140 435 358 426 b 883 265 727 409 883 401 b 533 77 883 127 749 77 b 157 161 386 77 277 103 z m 328 1182 l 510 1018 l 603 1018 l 793 1184 l 738 1239 l 563 1076 l 394 1239 z "},"Ș":{"ha":1084,"x_min":0,"x_max":0,"o":"m 501 -360 l 550 -376 l 615 -215 l 615 -79 l 502 -79 l 502 -211 l 539 -211 z m 118 71 b 527 -16 224 15 362 -16 b 980 269 815 -16 980 63 b 584 514 980 483 777 503 b 242 656 409 524 242 525 b 557 817 242 768 341 817 b 890 763 694 817 804 787 l 920 853 b 553 910 840 880 710 910 b 140 656 315 910 140 837 b 558 417 140 435 358 426 b 883 265 727 409 883 401 b 533 77 883 127 749 77 b 157 161 386 77 277 103 z "},"T":{"ha":1003,"x_min":0,"x_max":0,"o":"m 440 806 l 440 0 l 540 0 l 540 806 l 976 806 l 976 896 l 28 896 l 28 806 z "},"Ţ":{"ha":1003,"x_min":0,"x_max":0,"o":"m 433 -360 l 482 -376 l 547 -215 l 547 -79 l 434 -79 l 434 -211 l 471 -211 z m 28 806 l 440 806 l 440 0 l 540 0 l 540 806 l 976 806 l 976 896 l 28 896 z "},"Ť":{"ha":1003,"x_min":0,"x_max":0,"o":"m 256 1186 l 437 1022 l 531 1022 l 720 1188 l 665 1243 l 490 1081 l 321 1243 z m 28 806 l 440 806 l 440 0 l 540 0 l 540 806 l 976 806 l 976 896 l 28 896 z "},"U":{"ha":1181,"x_min":0,"x_max":0,"o":"m 146 408 b 590 -16 146 38 401 -16 b 1035 409 776 -16 1035 46 l 1035 897 l 935 896 l 935 415 b 591 77 935 146 772 77 b 245 415 410 77 245 146 l 245 896 l 146 897 z "},"Ù":{"ha":1181,"x_min":0,"x_max":0,"o":"m 146 408 b 590 -16 146 38 401 -16 b 1035 409 776 -16 1035 46 l 1035 897 l 935 896 l 935 415 b 591 77 935 146 772 77 b 245 415 410 77 245 146 l 245 896 l 146 897 z m 369 1137 l 649 997 l 692 1066 l 415 1217 z "},"Ú":{"ha":1181,"x_min":0,"x_max":0,"o":"m 488 1066 l 531 997 l 811 1137 l 765 1217 z m 146 408 b 590 -16 146 38 401 -16 b 1035 409 776 -16 1035 46 l 1035 897 l 935 896 l 935 415 b 591 77 935 146 772 77 b 245 415 410 77 245 146 l 245 896 l 146 897 z "},"Û":{"ha":1181,"x_min":0,"x_max":0,"o":"m 376 1042 l 437 988 l 610 1150 l 782 988 l 840 1044 l 659 1208 l 565 1208 z m 146 408 b 590 -16 146 38 401 -16 b 1035 409 776 -16 1035 46 l 1035 897 l 935 896 l 935 415 b 591 77 935 146 772 77 b 245 415 410 77 245 146 l 245 896 l 146 897 z "},"Ü":{"ha":1181,"x_min":0,"x_max":0,"o":"m 428 1127 l 428 1018 l 537 1018 l 537 1127 z m 146 408 b 590 -16 146 38 401 -16 b 1035 409 776 -16 1035 46 l 1035 897 l 935 896 l 935 415 b 591 77 935 146 772 77 b 245 415 410 77 245 146 l 245 896 l 146 897 z m 664 1018 l 772 1018 l 772 1127 l 664 1127 z "},"Ũ":{"ha":1181,"x_min":0,"x_max":0,"o":"m 146 408 b 590 -16 146 38 401 -16 b 1035 409 776 -16 1035 46 l 1035 897 l 935 896 l 935 415 b 591 77 935 146 772 77 b 245 415 410 77 245 146 l 245 896 l 146 897 z m 358 1051 l 424 1017 b 510 1089 442 1052 467 1089 b 594 1051 539 1089 565 1070 b 705 1010 625 1031 660 1010 b 859 1135 771 1010 824 1046 l 792 1168 b 704 1088 768 1113 743 1088 b 623 1124 677 1088 652 1106 b 508 1168 591 1146 555 1168 b 358 1051 445 1168 387 1133 z "},"Ū":{"ha":1181,"x_min":0,"x_max":0,"o":"m 146 408 b 590 -16 146 38 401 -16 b 1035 409 776 -16 1035 46 l 1035 897 l 935 896 l 935 415 b 591 77 935 146 772 77 b 245 415 410 77 245 146 l 245 896 l 146 897 z m 394 1031 l 803 1031 l 803 1110 l 394 1110 z "},"Ŭ":{"ha":1181,"x_min":0,"x_max":0,"o":"m 146 408 b 590 -16 146 38 401 -16 b 1035 409 776 -16 1035 46 l 1035 897 l 935 896 l 935 415 b 591 77 935 146 772 77 b 245 415 410 77 245 146 l 245 896 l 146 897 z m 396 1194 b 606 997 403 1084 459 997 b 816 1194 750 997 807 1092 l 740 1206 b 606 1072 722 1097 670 1072 b 473 1206 546 1072 491 1097 z "},"Ů":{"ha":1181,"x_min":0,"x_max":0,"o":"m 450 1117 b 607 980 450 1039 508 980 b 765 1117 701 980 765 1039 b 607 1252 765 1194 700 1252 b 450 1117 514 1252 450 1194 z m 146 408 b 590 -16 146 38 401 -16 b 1035 409 776 -16 1035 46 l 1035 897 l 935 896 l 935 415 b 591 77 935 146 772 77 b 245 415 410 77 245 146 l 245 896 l 146 897 z m 520 1117 b 607 1194 520 1155 550 1194 b 693 1117 664 1194 693 1155 b 607 1039 693 1078 663 1039 b 520 1117 550 1039 520 1078 z "},"Ű":{"ha":1181,"x_min":0,"x_max":0,"o":"m 146 408 b 590 -16 146 38 401 -16 b 1035 409 776 -16 1035 46 l 1035 897 l 935 896 l 935 415 b 591 77 935 146 772 77 b 245 415 410 77 245 146 l 245 896 l 146 897 z m 392 1043 l 453 990 l 667 1201 l 599 1265 z m 666 1056 l 722 997 l 954 1189 l 892 1258 z "},"Ų":{"ha":1197,"x_min":0,"x_max":0,"o":"m 504 -152 b 664 -290 504 -240 561 -290 b 795 -270 728 -290 776 -276 l 778 -206 b 665 -222 749 -216 704 -222 b 583 -142 629 -222 583 -199 b 702 -8 583 -102 617 -55 b 1035 409 865 19 1035 115 l 1035 897 l 935 896 l 935 415 b 591 77 935 146 772 77 b 245 415 410 77 245 146 l 245 896 l 146 897 l 146 408 b 576 -16 146 47 389 -13 b 504 -152 530 -55 504 -99 z "},"V":{"ha":1095,"x_min":0,"x_max":0,"o":"m 42 860 l 482 0 l 623 0 l 1053 870 l 962 913 l 557 72 l 133 913 z "},"W":{"ha":1519,"x_min":0,"x_max":0,"o":"m 63 881 l 369 0 l 508 0 l 761 819 l 1017 0 l 1162 0 l 1456 885 l 1367 912 l 1091 66 l 834 896 l 689 896 l 439 78 l 153 912 z "},"Ŵ":{"ha":1519,"x_min":0,"x_max":0,"o":"m 527 1042 l 588 988 l 762 1150 l 933 988 l 992 1044 l 810 1208 l 717 1208 z m 63 881 l 369 0 l 508 0 l 761 819 l 1017 0 l 1162 0 l 1456 885 l 1367 912 l 1091 66 l 834 896 l 689 896 l 439 78 l 153 912 z "},"Ẁ":{"ha":1519,"x_min":0,"x_max":0,"o":"m 63 881 l 369 0 l 508 0 l 761 819 l 1017 0 l 1162 0 l 1456 885 l 1367 912 l 1091 66 l 834 896 l 689 896 l 439 78 l 153 912 z m 513 1137 l 794 997 l 837 1066 l 560 1217 z "},"Ẃ":{"ha":1519,"x_min":0,"x_max":0,"o":"m 689 1066 l 732 997 l 1013 1137 l 966 1217 z m 63 881 l 369 0 l 508 0 l 761 819 l 1017 0 l 1162 0 l 1456 885 l 1367 912 l 1091 66 l 834 896 l 689 896 l 439 78 l 153 912 z "},"Ẅ":{"ha":1519,"x_min":0,"x_max":0,"o":"m 590 1127 l 590 1018 l 699 1018 l 699 1127 z m 63 881 l 369 0 l 508 0 l 761 819 l 1017 0 l 1162 0 l 1456 885 l 1367 912 l 1091 66 l 834 896 l 689 896 l 439 78 l 153 912 z m 826 1018 l 934 1018 l 934 1127 l 826 1127 z "},"X":{"ha":1100,"x_min":0,"x_max":0,"o":"m 68 50 l 132 -16 l 551 402 l 982 -16 l 1048 51 l 620 465 l 1006 844 l 944 910 l 556 526 l 164 910 l 98 840 l 485 463 z "},"Y":{"ha":1105,"x_min":0,"x_max":0,"o":"m 506 249 l 506 0 l 605 0 l 605 251 l 1067 856 l 995 910 l 558 337 l 114 910 l 42 850 z "},"Ý":{"ha":1105,"x_min":0,"x_max":0,"o":"m 506 249 l 506 0 l 605 0 l 605 251 l 1067 856 l 995 910 l 558 337 l 114 910 l 42 850 z m 456 1066 l 499 997 l 780 1137 l 733 1217 z "},"Ŷ":{"ha":1105,"x_min":0,"x_max":0,"o":"m 506 249 l 506 0 l 605 0 l 605 251 l 1067 856 l 995 910 l 558 337 l 114 910 l 42 850 z m 331 1042 l 392 988 l 565 1150 l 737 988 l 795 1044 l 614 1208 l 520 1208 z "},"Ÿ":{"ha":1105,"x_min":0,"x_max":0,"o":"m 506 249 l 506 0 l 605 0 l 605 251 l 1067 856 l 995 910 l 558 337 l 114 910 l 42 850 z m 388 1018 l 497 1018 l 497 1127 l 388 1127 z m 624 1018 l 732 1018 l 732 1127 l 624 1127 z "},"Z":{"ha":1029,"x_min":0,"x_max":0,"o":"m 73 119 l 73 0 l 970 0 l 970 90 l 171 90 l 940 769 l 940 896 l 116 896 l 116 806 l 848 806 z "},"Ź":{"ha":1029,"x_min":0,"x_max":0,"o":"m 434 1066 l 477 997 l 758 1137 l 711 1217 z m 73 0 l 970 0 l 970 90 l 171 90 l 940 769 l 940 896 l 116 896 l 116 806 l 848 806 l 73 119 z "},"Ż":{"ha":1029,"x_min":0,"x_max":0,"o":"m 73 119 l 73 0 l 970 0 l 970 90 l 171 90 l 940 769 l 940 896 l 116 896 l 116 806 l 848 806 z m 480 1018 l 588 1018 l 588 1127 l 480 1127 z "},"Ž":{"ha":1029,"x_min":0,"x_max":0,"o":"m 301 1182 l 482 1018 l 576 1018 l 765 1184 l 710 1239 l 535 1076 l 366 1239 z m 73 0 l 970 0 l 970 90 l 171 90 l 940 769 l 940 896 l 116 896 l 116 806 l 848 806 l 73 119 z "},"Æ":{"ha":1636,"x_min":0,"x_max":0,"o":"m 52 42 l 126 -16 l 294 201 l 760 201 l 760 0 l 1553 0 l 1553 90 l 860 90 l 860 409 l 1433 409 l 1433 497 l 860 497 l 860 806 l 1539 806 l 1539 896 l 714 896 z m 361 288 l 760 803 l 760 288 z "},"Ǽ":{"ha":1636,"x_min":0,"x_max":0,"o":"m 724 1066 l 767 997 l 1047 1137 l 1001 1217 z m 52 42 l 126 -16 l 294 201 l 760 201 l 760 0 l 1553 0 l 1553 90 l 860 90 l 860 409 l 1433 409 l 1433 497 l 860 497 l 860 806 l 1539 806 l 1539 896 l 714 896 z m 361 288 l 760 803 l 760 288 z "},"Ð":{"ha":1201,"x_min":0,"x_max":0,"o":"m 35 473 l 35 393 l 180 393 l 180 0 l 563 0 b 1084 440 906 0 1084 126 b 567 896 1084 741 923 896 l 180 896 l 180 473 z m 279 88 l 279 393 l 548 393 l 548 473 l 279 473 l 279 806 l 576 806 b 980 441 878 806 980 663 b 583 88 980 235 887 88 z "},"Ø":{"ha":1293,"x_min":0,"x_max":0,"o":"m 103 49 l 160 -14 l 277 85 b 641 -16 372 15 500 -16 b 1175 446 928 -16 1175 120 b 1069 750 1175 576 1135 676 l 1188 849 l 1131 913 l 1006 807 b 650 910 910 878 783 910 b 118 442 385 910 118 776 b 215 143 118 313 154 215 z m 224 444 b 647 817 224 699 412 817 b 926 740 753 817 851 792 l 297 212 b 224 444 251 269 224 347 z m 358 153 l 990 683 b 1069 444 1040 624 1069 545 b 640 77 1069 189 883 77 b 358 153 528 77 431 101 z "},"Ǿ":{"ha":1292,"x_min":0,"x_max":0,"o":"m 160 -14 l 277 85 b 641 -16 372 15 500 -16 b 1175 446 928 -16 1175 120 b 1069 750 1175 576 1135 676 l 1188 849 l 1131 913 l 1006 807 b 650 910 910 878 783 910 b 118 442 385 910 118 776 b 215 143 118 313 154 215 l 103 49 z m 224 444 b 647 817 224 699 412 817 b 926 740 753 817 851 792 l 297 212 b 224 444 251 269 224 347 z m 358 153 l 990 683 b 1069 444 1040 624 1069 545 b 640 77 1069 189 883 77 b 358 153 528 77 431 101 z m 543 1066 l 586 997 l 867 1137 l 820 1217 z "},"Þ":{"ha":1119,"x_min":0,"x_max":0,"o":"m 167 0 l 266 0 l 266 152 l 672 152 b 1022 444 885 152 1022 243 b 671 756 1022 642 905 756 l 266 756 l 266 896 l 167 896 z m 266 242 l 266 667 l 678 667 b 915 446 833 667 915 585 b 678 242 915 328 852 242 z "},"Đ":{"ha":1201,"x_min":0,"x_max":0,"o":"m 35 473 l 35 393 l 180 393 l 180 0 l 563 0 b 1084 440 906 0 1084 126 b 567 896 1084 741 923 896 l 180 896 l 180 473 z m 279 88 l 279 393 l 548 393 l 548 473 l 279 473 l 279 806 l 576 806 b 980 441 878 806 980 663 b 583 88 980 235 887 88 z "},"Ħ":{"ha":1271,"x_min":0,"x_max":0,"o":"m 76 735 l 76 655 l 167 655 l 167 0 l 266 0 l 266 397 l 1005 397 l 1005 0 l 1104 0 l 1104 655 l 1201 655 l 1201 735 l 1104 735 l 1104 896 l 1005 896 l 1005 735 l 266 735 l 266 896 l 167 896 l 167 735 z m 266 487 l 266 655 l 1005 655 l 1005 487 z "},"Ĳ":{"ha":1295,"x_min":0,"x_max":0,"o":"m 167 896 l 167 0 l 266 0 l 266 896 z m 460 67 b 779 -16 524 23 628 -16 b 1149 332 960 -16 1149 42 l 1149 897 l 1050 897 l 1050 336 b 782 77 1050 133 924 77 b 505 154 644 77 563 121 z "},"Ŀ":{"ha":935,"x_min":0,"x_max":0,"o":"m 167 896 l 167 0 l 920 0 l 920 90 l 266 90 l 266 896 z m 613 417 l 728 417 l 728 554 l 613 554 z "},"Ł":{"ha":935,"x_min":0,"x_max":0,"o":"m 22 388 l 56 316 l 167 368 l 167 0 l 920 0 l 920 90 l 266 90 l 266 415 l 521 533 l 487 606 l 266 502 l 266 896 l 167 896 l 167 456 z "},"Ŋ":{"ha":1229,"x_min":0,"x_max":0,"o":"m 740 -197 l 745 -283 l 764 -283 b 1063 -31 938 -283 1063 -199 l 1063 896 l 965 896 l 965 147 l 300 896 l 167 896 l 167 0 l 265 0 l 265 785 l 967 0 b 740 -197 967 -176 835 -196 z "},"Œ":{"ha":1618,"x_min":0,"x_max":0,"o":"m 118 440 b 640 0 118 124 297 0 l 1535 0 l 1535 88 l 883 88 l 883 410 l 1415 410 l 1415 499 l 883 499 l 883 806 l 1521 806 l 1521 896 l 635 896 b 118 440 281 896 118 742 z m 225 441 b 626 805 225 663 326 805 l 784 805 l 784 90 l 619 90 b 225 441 317 90 225 236 z "},"Ŧ":{"ha":1003,"x_min":0,"x_max":0,"o":"m 237 473 l 237 393 l 440 393 l 440 0 l 540 0 l 540 393 l 750 393 l 750 473 l 540 473 l 540 806 l 976 806 l 976 896 l 28 896 l 28 806 l 440 806 l 440 473 z "},"Ω":{"ha":1264,"x_min":0,"x_max":0,"o":"m 104 0 l 497 0 l 497 88 b 251 457 351 152 251 289 b 632 819 251 701 423 819 b 1013 457 838 819 1013 701 b 767 88 1013 289 918 156 l 767 0 l 1160 0 l 1160 88 l 926 88 b 1121 469 1047 174 1121 297 b 632 910 1121 758 886 910 b 143 469 378 910 143 758 b 337 88 143 297 216 174 l 104 88 z "},"a":{"ha":923,"x_min":0,"x_max":0,"o":"m 93 189 b 360 -16 93 23 233 -16 b 703 97 503 -16 624 41 l 719 0 l 798 0 l 798 428 b 477 694 798 613 680 694 b 162 637 329 694 229 662 l 190 553 b 477 609 246 576 351 609 b 702 428 631 609 702 551 l 702 415 b 541 421 644 419 590 421 b 93 189 243 421 93 345 z m 194 194 b 571 344 194 282 289 344 b 702 340 611 344 654 343 l 702 185 b 378 68 617 124 498 68 b 194 194 247 68 194 110 z "},"à":{"ha":923,"x_min":0,"x_max":0,"o":"m 93 189 b 360 -16 93 23 233 -16 b 703 97 503 -16 624 41 l 719 0 l 798 0 l 798 428 b 477 694 798 613 680 694 b 162 637 329 694 229 662 l 190 553 b 477 609 246 576 351 609 b 702 428 631 609 702 551 l 702 415 b 541 421 644 419 590 421 b 93 189 243 421 93 345 z m 194 194 b 571 344 194 282 289 344 b 702 340 611 344 654 343 l 702 185 b 378 68 617 124 498 68 b 194 194 247 68 194 110 z m 318 951 l 536 756 l 592 808 l 394 1024 z "},"á":{"ha":923,"x_min":0,"x_max":0,"o":"m 93 189 b 360 -16 93 23 233 -16 b 703 97 503 -16 624 41 l 719 0 l 798 0 l 798 428 b 477 694 798 613 680 694 b 162 637 329 694 229 662 l 190 553 b 477 609 246 576 351 609 b 702 428 631 609 702 551 l 702 415 b 541 421 644 419 590 421 b 93 189 243 421 93 345 z m 194 194 b 571 344 194 282 289 344 b 702 340 611 344 654 343 l 702 185 b 378 68 617 124 498 68 b 194 194 247 68 194 110 z m 367 808 l 422 756 l 639 951 l 568 1024 z "},"â":{"ha":923,"x_min":0,"x_max":0,"o":"m 93 189 b 360 -16 93 23 233 -16 b 703 97 503 -16 624 41 l 719 0 l 798 0 l 798 428 b 477 694 798 613 680 694 b 162 637 329 694 229 662 l 190 553 b 477 609 246 576 351 609 b 702 428 631 609 702 551 l 702 415 b 541 421 644 419 590 421 b 93 189 243 421 93 345 z m 194 194 b 571 344 194 282 289 344 b 702 340 611 344 654 343 l 702 185 b 378 68 617 124 498 68 b 194 194 247 68 194 110 z m 277 810 l 341 756 l 481 938 l 616 756 l 684 813 l 544 990 l 422 990 z "},"ã":{"ha":923,"x_min":0,"x_max":0,"o":"m 93 189 b 360 -16 93 23 233 -16 b 703 97 503 -16 624 41 l 719 0 l 798 0 l 798 428 b 477 694 798 613 680 694 b 162 637 329 694 229 662 l 190 553 b 477 609 246 576 351 609 b 702 428 631 609 702 551 l 702 415 b 541 421 644 419 590 421 b 93 189 243 421 93 345 z m 194 194 b 571 344 194 282 289 344 b 702 340 611 344 654 343 l 702 185 b 378 68 617 124 498 68 b 194 194 247 68 194 110 z m 235 817 l 297 776 b 390 849 317 815 342 849 b 452 817 410 849 429 834 b 572 767 483 794 519 767 b 730 890 641 767 691 797 l 667 928 b 573 846 638 867 619 846 b 492 890 549 846 523 868 b 391 928 464 909 431 928 b 235 817 326 928 268 900 z "},"ä":{"ha":923,"x_min":0,"x_max":0,"o":"m 93 189 b 360 -16 93 23 233 -16 b 703 97 503 -16 624 41 l 719 0 l 798 0 l 798 428 b 477 694 798 613 680 694 b 162 637 329 694 229 662 l 190 553 b 477 609 246 576 351 609 b 702 428 631 609 702 551 l 702 415 b 541 421 644 419 590 421 b 93 189 243 421 93 345 z m 194 194 b 571 344 194 282 289 344 b 702 340 611 344 654 343 l 702 185 b 378 68 617 124 498 68 b 194 194 247 68 194 110 z m 321 783 l 417 783 l 417 910 l 321 910 z m 544 783 l 640 783 l 640 910 l 544 910 z "},"å":{"ha":923,"x_min":0,"x_max":0,"o":"m 93 189 b 360 -16 93 23 233 -16 b 703 97 503 -16 624 41 l 719 0 l 798 0 l 798 428 b 477 694 798 613 680 694 b 162 637 329 694 229 662 l 190 553 b 477 609 246 576 351 609 b 702 428 631 609 702 551 l 702 415 b 541 421 644 419 590 421 b 93 189 243 421 93 345 z m 194 194 b 571 344 194 282 289 344 b 702 340 611 344 654 343 l 702 185 b 378 68 617 124 498 68 b 194 194 247 68 194 110 z m 332 889 b 482 756 332 810 390 756 b 633 889 573 756 633 810 b 482 1021 633 968 572 1021 b 332 889 392 1021 332 968 z m 402 889 b 482 962 402 927 430 962 b 561 889 533 962 561 927 b 482 816 561 851 533 816 b 402 889 430 816 402 851 z "},"ā":{"ha":923,"x_min":0,"x_max":0,"o":"m 93 189 b 360 -16 93 23 233 -16 b 703 97 503 -16 624 41 l 719 0 l 798 0 l 798 428 b 477 694 798 613 680 694 b 162 637 329 694 229 662 l 190 553 b 477 609 246 576 351 609 b 702 428 631 609 702 551 l 702 415 b 541 421 644 419 590 421 b 93 189 243 421 93 345 z m 194 194 b 571 344 194 282 289 344 b 702 340 611 344 654 343 l 702 185 b 378 68 617 124 498 68 b 194 194 247 68 194 110 z m 285 783 l 681 783 l 681 863 l 285 863 z "},"ă":{"ha":923,"x_min":0,"x_max":0,"o":"m 93 189 b 360 -16 93 23 233 -16 b 703 97 503 -16 624 41 l 719 0 l 798 0 l 798 428 b 477 694 798 613 680 694 b 162 637 329 694 229 662 l 190 553 b 477 609 246 576 351 609 b 702 428 631 609 702 551 l 702 415 b 541 421 644 419 590 421 b 93 189 243 421 93 345 z m 194 194 b 571 344 194 282 289 344 b 702 340 611 344 654 343 l 702 185 b 378 68 617 124 498 68 b 194 194 247 68 194 110 z m 294 945 b 484 756 302 840 351 756 b 673 945 613 756 664 847 l 597 957 b 484 827 581 854 538 827 b 372 957 433 827 388 854 z "},"ą":{"ha":923,"x_min":0,"x_max":0,"o":"m 528 -152 b 688 -290 528 -240 585 -290 b 819 -270 752 -290 800 -276 l 802 -206 b 688 -222 773 -216 728 -222 b 607 -142 653 -222 607 -199 b 798 0 607 -101 658 -49 l 798 428 b 477 694 798 613 680 694 b 162 637 329 694 229 662 l 190 553 b 477 609 246 576 351 609 b 702 428 631 609 702 551 l 702 415 b 541 421 644 419 590 421 b 93 189 243 421 93 345 b 360 -16 93 23 233 -16 b 703 97 503 -16 624 41 l 714 32 b 528 -152 595 -18 528 -74 z m 194 194 b 571 344 194 282 289 344 b 702 340 611 344 654 343 l 702 185 b 378 68 617 124 498 68 b 194 194 247 68 194 110 z "},"ǻ":{"ha":923,"x_min":0,"x_max":0,"o":"m 356 1109 l 398 1047 l 617 1173 l 558 1253 z m 93 189 b 360 -16 93 23 233 -16 b 703 97 503 -16 624 41 l 719 0 l 798 0 l 798 428 b 477 694 798 613 680 694 b 162 637 329 694 229 662 l 190 553 b 477 609 246 576 351 609 b 702 428 631 609 702 551 l 702 415 b 541 421 644 419 590 421 b 93 189 243 421 93 345 z m 194 194 b 571 344 194 282 289 344 b 702 340 611 344 654 343 l 702 185 b 378 68 617 124 498 68 b 194 194 247 68 194 110 z m 331 889 b 481 756 331 810 390 756 b 632 889 572 756 632 810 b 481 1021 632 968 571 1021 b 331 889 392 1021 331 968 z m 401 889 b 481 962 401 927 429 962 b 560 889 533 962 560 927 b 481 816 560 851 533 816 b 401 889 429 816 401 851 z "},"b":{"ha":976,"x_min":0,"x_max":0,"o":"m 231 74 b 522 -16 281 35 381 -16 b 879 335 740 -16 879 106 b 533 692 879 571 731 692 b 235 597 390 692 283 630 l 235 982 l 139 982 l 139 0 l 214 0 z m 235 164 l 235 501 b 517 606 293 547 397 606 b 778 334 679 606 778 510 b 517 70 778 160 679 70 b 235 164 425 70 334 99 z "},"c":{"ha":882,"x_min":0,"x_max":0,"o":"m 97 333 b 492 -16 97 110 253 -16 b 799 60 599 -16 690 7 l 759 138 b 499 70 688 105 606 70 b 199 333 322 70 199 161 b 501 606 199 513 328 606 b 749 556 572 606 654 592 l 783 639 b 508 692 722 664 628 692 b 97 333 274 692 97 569 z "},"ç":{"ha":882,"x_min":0,"x_max":0,"o":"m 97 333 b 458 -15 97 121 238 -3 b 551 -144 539 -57 551 -108 b 460 -222 551 -195 517 -222 b 341 -204 423 -222 369 -214 l 324 -270 b 454 -290 344 -276 397 -290 b 630 -152 568 -290 630 -240 b 567 -12 630 -98 612 -51 b 799 60 644 -3 716 19 l 759 138 b 499 70 688 105 606 70 b 199 333 322 70 199 161 b 501 606 199 513 328 606 b 749 556 572 606 654 592 l 783 639 b 508 692 722 664 628 692 b 97 333 274 692 97 569 z "},"ć":{"ha":882,"x_min":0,"x_max":0,"o":"m 97 333 b 492 -16 97 110 253 -16 b 799 60 599 -16 690 7 l 759 138 b 499 70 688 105 606 70 b 199 333 322 70 199 161 b 501 606 199 513 328 606 b 749 556 572 606 654 592 l 783 639 b 508 692 722 664 628 692 b 97 333 274 692 97 569 z m 382 808 l 436 756 l 653 951 l 583 1024 z "},"ĉ":{"ha":882,"x_min":0,"x_max":0,"o":"m 97 333 b 492 -16 97 110 253 -16 b 799 60 599 -16 690 7 l 759 138 b 499 70 688 105 606 70 b 199 333 322 70 199 161 b 501 606 199 513 328 606 b 749 556 572 606 654 592 l 783 639 b 508 692 722 664 628 692 b 97 333 274 692 97 569 z m 285 810 l 349 756 l 489 938 l 624 756 l 692 813 l 552 990 l 429 990 z "},"ċ":{"ha":882,"x_min":0,"x_max":0,"o":"m 440 910 l 440 783 l 535 783 l 535 910 z m 97 333 b 492 -16 97 110 253 -16 b 799 60 599 -16 690 7 l 759 138 b 499 70 688 105 606 70 b 199 333 322 70 199 161 b 501 606 199 513 328 606 b 749 556 572 606 654 592 l 783 639 b 508 692 722 664 628 692 b 97 333 274 692 97 569 z "},"č":{"ha":882,"x_min":0,"x_max":0,"o":"m 97 333 b 492 -16 97 110 253 -16 b 799 60 599 -16 690 7 l 759 138 b 499 70 688 105 606 70 b 199 333 322 70 199 161 b 501 606 199 513 328 606 b 749 556 572 606 654 592 l 783 639 b 508 692 722 664 628 692 b 97 333 274 692 97 569 z m 288 947 l 428 769 l 551 769 l 695 950 l 631 1004 l 491 822 l 356 1004 z "},"d":{"ha":976,"x_min":0,"x_max":0,"o":"m 97 333 b 448 -16 97 105 244 -16 b 749 86 603 -16 708 53 l 760 0 l 838 0 l 838 982 l 742 982 l 742 610 b 467 692 676 652 588 692 b 97 333 259 692 97 572 z m 199 334 b 464 606 199 513 309 606 b 742 515 551 606 650 577 l 742 172 b 463 69 685 127 591 69 b 199 334 301 69 199 159 z "},"ď":{"ha":1049,"x_min":0,"x_max":0,"o":"m 994 990 l 958 712 l 1042 701 l 1092 976 z m 97 333 b 448 -16 97 105 244 -16 b 749 86 603 -16 708 53 l 760 0 l 838 0 l 838 982 l 742 982 l 742 610 b 467 692 676 652 588 692 b 97 333 259 692 97 572 z m 199 334 b 464 606 199 513 309 606 b 742 515 551 606 650 577 l 742 172 b 463 69 685 127 591 69 b 199 334 301 69 199 159 z "},"e":{"ha":942,"x_min":0,"x_max":0,"o":"m 488 -16 b 838 71 613 -16 701 2 l 797 146 b 501 69 715 105 631 69 b 199 295 323 69 215 149 l 841 295 b 850 369 844 315 850 333 b 493 692 850 577 686 692 b 97 336 266 692 97 558 b 488 -16 97 95 272 -16 z m 199 374 b 494 608 214 527 328 608 b 751 376 648 608 751 509 l 751 374 z "},"è":{"ha":942,"x_min":0,"x_max":0,"o":"m 324 951 l 542 756 l 597 808 l 399 1024 z m 97 336 b 488 -16 97 95 272 -16 b 838 71 613 -16 701 2 l 797 146 b 501 69 715 105 631 69 b 199 295 323 69 215 149 l 841 295 b 850 369 844 315 850 333 b 493 692 850 577 686 692 b 97 336 266 692 97 558 z m 199 374 b 494 608 214 527 328 608 b 751 376 648 608 751 509 l 751 374 z "},"é":{"ha":942,"x_min":0,"x_max":0,"o":"m 488 -16 b 838 71 613 -16 701 2 l 797 146 b 501 69 715 105 631 69 b 199 295 323 69 215 149 l 841 295 b 850 369 844 315 850 333 b 493 692 850 577 686 692 b 97 336 266 692 97 558 b 488 -16 97 95 272 -16 z m 199 374 b 494 608 214 527 328 608 b 751 376 648 608 751 509 l 751 374 z m 405 808 l 459 756 l 676 951 l 606 1024 z "},"ê":{"ha":942,"x_min":0,"x_max":0,"o":"m 290 817 l 354 763 l 494 944 l 629 763 l 697 819 l 558 997 l 435 997 z m 97 336 b 488 -16 97 95 272 -16 b 838 71 613 -16 701 2 l 797 146 b 501 69 715 105 631 69 b 199 295 323 69 215 149 l 841 295 b 850 369 844 315 850 333 b 493 692 850 577 686 692 b 97 336 266 692 97 558 z m 199 374 b 494 608 214 527 328 608 b 751 376 648 608 751 509 l 751 374 z "},"ë":{"ha":942,"x_min":0,"x_max":0,"o":"m 333 910 l 333 783 l 429 783 l 429 910 z m 97 336 b 488 -16 97 95 272 -16 b 838 71 613 -16 701 2 l 797 146 b 501 69 715 105 631 69 b 199 295 323 69 215 149 l 841 295 b 850 369 844 315 850 333 b 493 692 850 577 686 692 b 97 336 266 692 97 558 z m 199 374 b 494 608 214 527 328 608 b 751 376 648 608 751 509 l 751 374 z m 556 783 l 652 783 l 652 910 l 556 910 z "},"ē":{"ha":942,"x_min":0,"x_max":0,"o":"m 488 -16 b 838 71 613 -16 701 2 l 797 146 b 501 69 715 105 631 69 b 199 295 323 69 215 149 l 841 295 b 850 369 844 315 850 333 b 493 692 850 577 686 692 b 97 336 266 692 97 558 b 488 -16 97 95 272 -16 z m 199 374 b 494 608 214 527 328 608 b 751 376 648 608 751 509 l 751 374 z m 292 783 l 688 783 l 688 863 l 292 863 z "},"ĕ":{"ha":942,"x_min":0,"x_max":0,"o":"m 488 -16 b 838 71 613 -16 701 2 l 797 146 b 501 69 715 105 631 69 b 199 295 323 69 215 149 l 841 295 b 850 369 844 315 850 333 b 493 692 850 577 686 692 b 97 336 266 692 97 558 b 488 -16 97 95 272 -16 z m 199 374 b 494 608 214 527 328 608 b 751 376 648 608 751 509 l 751 374 z m 301 945 b 490 756 308 840 358 756 b 679 945 619 756 670 847 l 603 957 b 490 827 587 854 544 827 b 378 957 440 827 394 854 z "},"ė":{"ha":942,"x_min":0,"x_max":0,"o":"m 446 910 l 446 783 l 542 783 l 542 910 z m 97 336 b 488 -16 97 95 272 -16 b 838 71 613 -16 701 2 l 797 146 b 501 69 715 105 631 69 b 199 295 323 69 215 149 l 841 295 b 850 369 844 315 850 333 b 493 692 850 577 686 692 b 97 336 266 692 97 558 z m 199 374 b 494 608 214 527 328 608 b 751 376 648 608 751 509 l 751 374 z "},"ę":{"ha":974,"x_min":0,"x_max":0,"o":"m 708 -290 b 840 -270 767 -290 821 -276 l 823 -206 b 709 -222 794 -216 749 -222 b 628 -142 674 -222 628 -199 b 770 40 628 -89 670 -22 b 838 71 792 49 814 59 l 797 146 b 501 69 715 105 631 69 b 199 295 323 69 215 149 l 841 295 b 850 369 844 315 850 333 b 493 692 850 577 686 692 b 97 336 266 692 97 558 b 488 -16 97 95 272 -16 b 615 -7 533 -16 574 -14 b 549 -152 572 -49 549 -96 b 708 -290 549 -240 606 -290 z m 199 374 b 494 608 214 527 328 608 b 751 376 648 608 751 509 l 751 374 z "},"ě":{"ha":942,"x_min":0,"x_max":0,"o":"m 488 -16 b 838 71 613 -16 701 2 l 797 146 b 501 69 715 105 631 69 b 199 295 323 69 215 149 l 841 295 b 850 369 844 315 850 333 b 493 692 850 577 686 692 b 97 336 266 692 97 558 b 488 -16 97 95 272 -16 z m 199 374 b 494 608 214 527 328 608 b 751 376 648 608 751 509 l 751 374 z m 281 947 l 420 769 l 543 769 l 688 950 l 624 1004 l 483 822 l 349 1004 z "},"f":{"ha":685,"x_min":0,"x_max":0,"o":"m 215 594 l 215 0 l 310 0 l 310 594 l 676 594 l 676 674 l 310 674 l 310 774 b 518 913 310 889 370 913 b 697 890 592 913 632 904 l 715 973 b 508 999 672 983 594 999 b 215 789 328 999 215 957 l 215 674 l 76 674 l 76 594 z "},"g":{"ha":1006,"x_min":0,"x_max":0,"o":"m 474 -290 b 867 30 713 -290 867 -186 l 867 674 l 788 674 l 778 603 b 503 692 715 648 628 692 b 125 340 295 692 125 574 b 474 -2 125 117 266 -2 b 771 103 622 -2 726 67 l 771 24 b 474 -204 771 -174 588 -204 b 188 -131 356 -204 253 -170 l 151 -214 b 474 -290 210 -247 307 -290 z m 226 341 b 506 606 226 513 344 606 b 771 514 589 606 683 575 l 771 193 b 490 84 715 147 617 84 b 226 341 317 84 226 175 z "},"ĝ":{"ha":1006,"x_min":0,"x_max":0,"o":"m 321 812 l 385 758 l 525 940 l 660 758 l 728 815 l 588 992 l 465 992 z m 125 340 b 474 -2 125 117 266 -2 b 771 103 622 -2 726 67 l 771 24 b 474 -204 771 -174 588 -204 b 188 -131 356 -204 253 -170 l 151 -214 b 474 -290 210 -247 307 -290 b 867 30 713 -290 867 -186 l 867 674 l 788 674 l 778 603 b 503 692 715 648 628 692 b 125 340 295 692 125 574 z m 226 341 b 506 606 226 513 344 606 b 771 514 589 606 683 575 l 771 193 b 490 84 715 147 617 84 b 226 341 317 84 226 175 z "},"ğ":{"ha":1006,"x_min":0,"x_max":0,"o":"m 474 -290 b 867 30 713 -290 867 -186 l 867 674 l 788 674 l 778 603 b 503 692 715 648 628 692 b 125 340 295 692 125 574 b 474 -2 125 117 266 -2 b 771 103 622 -2 726 67 l 771 24 b 474 -204 771 -174 588 -204 b 188 -131 356 -204 253 -170 l 151 -214 b 474 -290 210 -247 307 -290 z m 226 341 b 506 606 226 513 344 606 b 771 514 589 606 683 575 l 771 193 b 490 84 715 147 617 84 b 226 341 317 84 226 175 z m 322 945 b 512 756 330 840 379 756 b 701 945 641 756 692 847 l 624 957 b 512 827 608 854 565 827 b 399 957 461 827 415 854 z "},"ġ":{"ha":1006,"x_min":0,"x_max":0,"o":"m 471 910 l 471 783 l 567 783 l 567 910 z m 125 340 b 474 -2 125 117 266 -2 b 771 103 622 -2 726 67 l 771 24 b 474 -204 771 -174 588 -204 b 188 -131 356 -204 253 -170 l 151 -214 b 474 -290 210 -247 307 -290 b 867 30 713 -290 867 -186 l 867 674 l 788 674 l 778 603 b 503 692 715 648 628 692 b 125 340 295 692 125 574 z m 226 341 b 506 606 226 513 344 606 b 771 514 589 606 683 575 l 771 193 b 490 84 715 147 617 84 b 226 341 317 84 226 175 z "},"ģ":{"ha":1006,"x_min":0,"x_max":0,"o":"m 569 1065 l 520 1081 l 456 919 l 456 783 l 568 783 l 568 915 l 531 915 z m 125 340 b 474 -2 125 117 266 -2 b 771 103 622 -2 726 67 l 771 24 b 474 -204 771 -174 588 -204 b 188 -131 356 -204 253 -170 l 151 -214 b 474 -290 210 -247 307 -290 b 867 30 713 -290 867 -186 l 867 674 l 788 674 l 778 603 b 503 692 715 648 628 692 b 125 340 295 692 125 574 z m 226 341 b 506 606 226 513 344 606 b 771 514 589 606 683 575 l 771 193 b 490 84 715 147 617 84 b 226 341 317 84 226 175 z "},"h":{"ha":966,"x_min":0,"x_max":0,"o":"m 139 982 l 139 0 l 235 0 l 235 513 b 553 606 263 529 385 606 b 745 417 676 606 745 553 l 745 0 l 841 0 l 841 428 b 559 692 841 635 710 692 b 235 599 406 692 286 631 l 235 982 z "},"ĥ":{"ha":966,"x_min":0,"x_max":0,"o":"m 280 1077 l 341 1022 l 515 1185 l 686 1022 l 744 1079 l 563 1243 l 469 1243 z m 139 0 l 235 0 l 235 513 b 553 606 263 529 385 606 b 745 417 676 606 745 553 l 745 0 l 841 0 l 841 428 b 559 692 841 635 710 692 b 235 599 406 692 286 631 l 235 982 l 139 982 z "},"i":{"ha":374,"x_min":0,"x_max":0,"o":"m 139 674 l 139 0 l 235 0 l 235 674 z m 139 783 l 235 783 l 235 910 l 139 910 z "},"ì":{"ha":374,"x_min":0,"x_max":0,"o":"m -22 951 l 197 756 l 252 808 l 54 1024 z m 139 0 l 235 0 l 235 674 l 139 674 z "},"í":{"ha":374,"x_min":0,"x_max":0,"o":"m 139 674 l 139 0 l 235 0 l 235 674 z m 128 809 l 183 757 l 400 953 l 329 1025 z "},"î":{"ha":374,"x_min":0,"x_max":0,"o":"m -17 810 l 47 756 l 187 938 l 322 756 l 390 813 l 250 990 l 127 990 z m 139 0 l 235 0 l 235 674 l 139 674 z "},"ï":{"ha":374,"x_min":0,"x_max":0,"o":"m 26 910 l 26 783 l 122 783 l 122 910 z m 139 0 l 235 0 l 235 674 l 139 674 z m 249 783 l 345 783 l 345 910 l 249 910 z "},"ĩ":{"ha":374,"x_min":0,"x_max":0,"o":"m 139 674 l 139 0 l 235 0 l 235 674 z m -60 817 l 1 776 b 94 849 22 815 47 849 b 157 817 115 849 134 834 b 277 767 188 794 224 767 b 435 890 346 767 396 797 l 372 928 b 278 846 343 867 324 846 b 197 890 253 846 228 868 b 96 928 169 909 135 928 b -60 817 31 928 -27 900 z "},"ī":{"ha":374,"x_min":0,"x_max":0,"o":"m 139 674 l 139 0 l 235 0 l 235 674 z m -11 783 l 385 783 l 385 863 l -11 863 z "},"ĭ":{"ha":374,"x_min":0,"x_max":0,"o":"m 139 674 l 139 0 l 235 0 l 235 674 z m -3 945 b 187 756 5 840 54 756 b 376 945 316 756 367 847 l 299 957 b 187 827 283 854 240 827 b 74 957 136 827 90 854 z "},"į":{"ha":374,"x_min":0,"x_max":0,"o":"m 163 -290 b 294 -270 228 -290 276 -276 l 278 -206 b 164 -222 249 -216 203 -222 b 83 -142 128 -222 83 -199 b 235 0 83 -99 122 -51 l 235 674 l 139 674 l 139 20 b 3 -152 51 -24 3 -82 b 163 -290 3 -240 60 -290 z m 139 783 l 235 783 l 235 910 l 139 910 z "},"j":{"ha":419,"x_min":0,"x_max":0,"o":"m -7 -199 l 28 -290 b 281 0 205 -222 281 -148 l 281 674 l 185 674 l 185 10 b -7 -199 185 -92 105 -155 z m 185 783 l 281 783 l 281 910 l 185 910 z "},"ĵ":{"ha":413,"x_min":0,"x_max":0,"o":"m 23 810 l 87 756 l 227 938 l 362 756 l 430 813 l 290 990 l 167 990 z m -12 -199 l 24 -290 b 276 0 200 -222 276 -148 l 276 674 l 180 674 l 180 10 b -12 -199 180 -92 100 -155 z "},"k":{"ha":915,"x_min":0,"x_max":0,"o":"m 496 359 l 776 -16 l 851 37 l 569 416 l 826 619 l 774 688 l 235 265 l 235 982 l 139 982 l 139 0 l 235 0 l 235 157 z "},"ķ":{"ha":915,"x_min":0,"x_max":0,"o":"m 428 -360 l 476 -376 l 541 -215 l 541 -79 l 428 -79 l 428 -211 l 465 -211 z m 139 0 l 235 0 l 235 157 l 496 359 l 776 -16 l 851 37 l 569 416 l 826 619 l 774 688 l 235 265 l 235 982 l 139 982 z "},"l":{"ha":374,"x_min":0,"x_max":0,"o":"m 139 982 l 139 0 l 235 0 l 235 982 z "},"ĺ":{"ha":374,"x_min":0,"x_max":0,"o":"m 135 1114 l 178 1045 l 459 1185 l 413 1265 z m 139 0 l 235 0 l 235 982 l 139 982 z "},"ļ":{"ha":374,"x_min":0,"x_max":0,"o":"m 130 -360 l 178 -376 l 243 -215 l 243 -79 l 131 -79 l 131 -211 l 167 -211 z m 139 0 l 235 0 l 235 982 l 139 982 z "},"ľ":{"ha":447,"x_min":0,"x_max":0,"o":"m 386 990 l 350 711 l 434 700 l 484 976 z m 139 0 l 235 0 l 235 982 l 139 982 z "},"m":{"ha":1492,"x_min":0,"x_max":0,"o":"m 139 674 l 139 0 l 235 0 l 235 514 b 540 606 262 530 382 606 b 713 444 655 606 713 547 l 713 0 l 809 0 l 809 517 b 1098 606 853 544 962 606 b 1272 417 1213 606 1272 552 l 1272 0 l 1367 0 l 1367 428 b 1105 692 1367 635 1256 692 b 778 585 953 692 841 624 b 547 692 729 666 648 692 b 235 599 397 692 292 633 l 221 674 z "},"n":{"ha":987,"x_min":0,"x_max":0,"o":"m 139 674 l 139 0 l 235 0 l 235 510 b 565 606 264 526 390 606 b 766 417 693 606 766 553 l 766 0 l 862 0 l 862 428 b 572 692 862 635 728 692 b 235 599 406 692 289 631 l 221 674 z "},"ñ":{"ha":987,"x_min":0,"x_max":0,"o":"m 139 674 l 139 0 l 235 0 l 235 510 b 565 606 264 526 390 606 b 766 417 693 606 766 553 l 766 0 l 862 0 l 862 428 b 572 692 862 635 728 692 b 235 599 406 692 289 631 l 221 674 z m 270 817 l 331 776 b 424 849 352 815 376 849 b 487 817 444 849 464 834 b 607 767 517 794 554 767 b 765 890 676 767 726 797 l 702 928 b 608 846 673 867 653 846 b 527 890 583 846 558 868 b 426 928 499 909 465 928 b 270 817 360 928 303 900 z "},"ń":{"ha":987,"x_min":0,"x_max":0,"o":"m 404 808 l 458 756 l 676 951 l 605 1024 z m 139 0 l 235 0 l 235 510 b 565 606 264 526 390 606 b 766 417 693 606 766 553 l 766 0 l 862 0 l 862 428 b 572 692 862 635 728 692 b 235 599 406 692 289 631 l 221 674 l 139 674 z "},"ņ":{"ha":987,"x_min":0,"x_max":0,"o":"m 450 -360 l 499 -376 l 563 -215 l 563 -79 l 451 -79 l 451 -211 l 488 -211 z m 139 0 l 235 0 l 235 510 b 565 606 264 526 390 606 b 766 417 693 606 766 553 l 766 0 l 862 0 l 862 428 b 572 692 862 635 728 692 b 235 599 406 692 289 631 l 221 674 l 139 674 z "},"ň":{"ha":987,"x_min":0,"x_max":0,"o":"m 319 947 l 459 769 l 582 769 l 726 950 l 663 1004 l 522 822 l 388 1004 z m 139 0 l 235 0 l 235 510 b 565 606 264 526 390 606 b 766 417 693 606 766 553 l 766 0 l 862 0 l 862 428 b 572 692 862 635 728 692 b 235 599 406 692 289 631 l 221 674 l 139 674 z "},"o":{"ha":999,"x_min":0,"x_max":0,"o":"m 97 338 b 499 -16 97 110 272 -16 b 901 338 724 -16 901 110 b 499 694 901 568 723 694 b 97 338 276 694 97 568 z m 199 339 b 499 608 199 506 327 608 b 800 339 672 608 800 506 b 499 70 800 172 672 70 b 199 339 327 70 199 172 z "},"ò":{"ha":999,"x_min":0,"x_max":0,"o":"m 339 951 l 557 756 l 613 808 l 415 1024 z m 97 338 b 499 -16 97 110 272 -16 b 901 338 724 -16 901 110 b 499 694 901 568 723 694 b 97 338 276 694 97 568 z m 199 339 b 499 608 199 506 327 608 b 800 339 672 608 800 506 b 499 70 800 172 672 70 b 199 339 327 70 199 172 z "},"ó":{"ha":999,"x_min":0,"x_max":0,"o":"m 425 808 l 479 756 l 697 951 l 626 1024 z m 97 338 b 499 -16 97 110 272 -16 b 901 338 724 -16 901 110 b 499 694 901 568 723 694 b 97 338 276 694 97 568 z m 199 339 b 499 608 199 506 327 608 b 800 339 672 608 800 506 b 499 70 800 172 672 70 b 199 339 327 70 199 172 z "},"ô":{"ha":999,"x_min":0,"x_max":0,"o":"m 295 810 l 359 756 l 499 938 l 634 756 l 702 813 l 563 990 l 440 990 z m 97 338 b 499 -16 97 110 272 -16 b 901 338 724 -16 901 110 b 499 694 901 568 723 694 b 97 338 276 694 97 568 z m 199 339 b 499 608 199 506 327 608 b 800 339 672 608 800 506 b 499 70 800 172 672 70 b 199 339 327 70 199 172 z "},"õ":{"ha":999,"x_min":0,"x_max":0,"o":"m 97 338 b 499 -16 97 110 272 -16 b 901 338 724 -16 901 110 b 499 694 901 568 723 694 b 97 338 276 694 97 568 z m 199 339 b 499 608 199 506 327 608 b 800 339 672 608 800 506 b 499 70 800 172 672 70 b 199 339 327 70 199 172 z m 257 817 l 318 776 b 411 849 339 815 363 849 b 474 817 431 849 451 834 b 594 767 504 794 541 767 b 751 890 663 767 713 797 l 689 928 b 594 846 660 867 640 846 b 514 890 570 846 544 868 b 413 928 485 909 452 928 b 257 817 347 928 290 900 z "},"ö":{"ha":999,"x_min":0,"x_max":0,"o":"m 339 910 l 339 783 l 435 783 l 435 910 z m 97 338 b 499 -16 97 110 272 -16 b 901 338 724 -16 901 110 b 499 694 901 568 723 694 b 97 338 276 694 97 568 z m 199 339 b 499 608 199 506 327 608 b 800 339 672 608 800 506 b 499 70 800 172 672 70 b 199 339 327 70 199 172 z m 562 783 l 658 783 l 658 910 l 562 910 z "},"ō":{"ha":999,"x_min":0,"x_max":0,"o":"m 97 338 b 499 -16 97 110 272 -16 b 901 338 724 -16 901 110 b 499 694 901 568 723 694 b 97 338 276 694 97 568 z m 199 339 b 499 608 199 506 327 608 b 800 339 672 608 800 506 b 499 70 800 172 672 70 b 199 339 327 70 199 172 z m 301 783 l 697 783 l 697 863 l 301 863 z "},"ŏ":{"ha":999,"x_min":0,"x_max":0,"o":"m 97 338 b 499 -16 97 110 272 -16 b 901 338 724 -16 901 110 b 499 694 901 568 723 694 b 97 338 276 694 97 568 z m 199 339 b 499 608 199 506 327 608 b 800 339 672 608 800 506 b 499 70 800 172 672 70 b 199 339 327 70 199 172 z m 311 945 b 501 756 319 840 368 756 b 690 945 630 756 681 847 l 613 957 b 501 827 597 854 554 827 b 388 957 450 827 404 854 z "},"ő":{"ha":999,"x_min":0,"x_max":0,"o":"m 305 797 l 368 756 l 529 958 l 442 1015 z m 97 338 b 499 -16 97 110 272 -16 b 901 338 724 -16 901 110 b 499 694 901 568 723 694 b 97 338 276 694 97 568 z m 199 339 b 499 608 199 506 327 608 b 800 339 672 608 800 506 b 499 70 800 172 672 70 b 199 339 327 70 199 172 z m 575 810 l 635 763 l 819 946 l 738 1011 z "},"p":{"ha":976,"x_min":0,"x_max":0,"o":"m 139 674 l 139 -274 l 235 -274 l 235 72 b 522 -16 286 33 385 -16 b 879 335 740 -16 879 106 b 533 692 879 571 731 692 b 233 595 388 692 280 628 l 221 674 z m 235 164 l 235 507 b 517 606 293 551 397 606 b 778 334 679 606 778 510 b 517 70 778 160 679 70 b 235 164 425 70 334 100 z "},"q":{"ha":978,"x_min":0,"x_max":0,"o":"m 743 81 l 743 -274 l 839 -274 l 839 674 l 762 674 l 751 604 b 481 692 688 649 601 692 b 97 333 265 692 97 572 b 448 -16 97 105 244 -16 b 743 81 596 -16 699 47 z m 199 334 b 478 606 199 513 315 606 b 743 515 561 606 656 576 l 743 173 b 463 70 687 128 592 70 b 199 334 301 70 199 160 z "},"r":{"ha":605,"x_min":0,"x_max":0,"o":"m 139 0 l 235 0 l 235 474 b 588 599 333 536 460 584 l 576 694 b 235 560 439 682 319 619 l 221 674 l 139 674 z "},"ŕ":{"ha":605,"x_min":0,"x_max":0,"o":"m 139 0 l 235 0 l 235 474 b 588 599 333 536 460 584 l 576 694 b 235 560 439 682 319 619 l 221 674 l 139 674 z m 254 808 l 308 756 l 526 951 l 455 1024 z "},"ŗ":{"ha":605,"x_min":0,"x_max":0,"o":"m 130 -360 l 178 -376 l 243 -215 l 243 -79 l 131 -79 l 131 -211 l 167 -211 z m 139 0 l 235 0 l 235 474 b 588 599 333 536 460 584 l 576 694 b 235 560 439 682 319 619 l 221 674 l 139 674 z "},"ř":{"ha":605,"x_min":0,"x_max":0,"o":"m 139 0 l 235 0 l 235 474 b 588 599 333 536 460 584 l 576 694 b 235 560 439 682 319 619 l 221 674 l 139 674 z m 145 947 l 285 769 l 408 769 l 552 950 l 488 1004 l 348 822 l 213 1004 z "},"s":{"ha":855,"x_min":0,"x_max":0,"o":"m 116 139 l 79 58 b 419 -16 145 24 254 -16 b 774 201 631 -16 774 41 b 456 396 774 380 610 391 b 199 494 323 399 199 397 b 425 611 199 578 288 611 b 694 560 537 611 615 589 l 726 643 b 432 694 660 669 551 694 b 105 490 276 694 105 650 b 436 308 105 315 278 311 b 685 198 566 304 685 301 b 426 69 685 114 615 69 b 116 139 277 69 197 99 z "},"ś":{"ha":855,"x_min":0,"x_max":0,"o":"m 116 139 l 79 58 b 419 -16 145 24 254 -16 b 774 201 631 -16 774 41 b 456 396 774 380 610 391 b 199 494 323 399 199 397 b 425 611 199 578 288 611 b 694 560 537 611 615 589 l 726 643 b 432 694 660 669 551 694 b 105 490 276 694 105 650 b 436 308 105 315 278 311 b 685 198 566 304 685 301 b 426 69 685 114 615 69 b 116 139 277 69 197 99 z m 329 808 l 383 756 l 601 951 l 530 1024 z "},"ŝ":{"ha":855,"x_min":0,"x_max":0,"o":"m 116 139 l 79 58 b 419 -16 145 24 254 -16 b 774 201 631 -16 774 41 b 456 396 774 380 610 391 b 199 494 323 399 199 397 b 425 611 199 578 288 611 b 694 560 537 611 615 589 l 726 643 b 432 694 660 669 551 694 b 105 490 276 694 105 650 b 436 308 105 315 278 311 b 685 198 566 304 685 301 b 426 69 685 114 615 69 b 116 139 277 69 197 99 z m 223 810 l 287 756 l 427 938 l 562 756 l 630 813 l 490 990 l 367 990 z "},"ş":{"ha":855,"x_min":0,"x_max":0,"o":"m 116 139 l 79 58 b 397 -16 142 25 244 -12 b 488 -144 476 -57 488 -108 b 398 -222 488 -195 455 -222 b 278 -204 360 -222 307 -214 l 262 -270 b 392 -290 281 -276 334 -290 b 567 -152 506 -290 567 -240 b 505 -12 567 -98 549 -52 b 774 201 669 2 774 64 b 456 396 774 380 610 391 b 199 494 323 399 199 397 b 425 611 199 578 288 611 b 694 560 537 611 615 589 l 726 643 b 432 694 660 669 551 694 b 105 490 276 694 105 650 b 436 308 105 315 278 311 b 685 198 566 304 685 301 b 426 69 685 114 615 69 b 116 139 277 69 197 99 z "},"š":{"ha":855,"x_min":0,"x_max":0,"o":"m 116 139 l 79 58 b 419 -16 145 24 254 -16 b 774 201 631 -16 774 41 b 456 396 774 380 610 391 b 199 494 323 399 199 397 b 425 611 199 578 288 611 b 694 560 537 611 615 589 l 726 643 b 432 694 660 669 551 694 b 105 490 276 694 105 650 b 436 308 105 315 278 311 b 685 198 566 304 685 301 b 426 69 685 114 615 69 b 116 139 277 69 197 99 z m 231 947 l 370 769 l 493 769 l 638 950 l 574 1004 l 433 822 l 299 1004 z "},"ș":{"ha":855,"x_min":0,"x_max":0,"o":"m 374 -360 l 422 -376 l 487 -215 l 487 -79 l 374 -79 l 374 -211 l 411 -211 z m 79 58 b 419 -16 145 24 254 -16 b 774 201 631 -16 774 41 b 456 396 774 380 610 391 b 199 494 323 399 199 397 b 425 611 199 578 288 611 b 694 560 537 611 615 589 l 726 643 b 432 694 660 669 551 694 b 105 490 276 694 105 650 b 436 308 105 315 278 311 b 685 198 566 304 685 301 b 426 69 685 114 615 69 b 116 139 277 69 197 99 z "},"t":{"ha":755,"x_min":0,"x_max":0,"o":"m 228 174 b 467 -16 228 22 319 -16 b 689 19 567 -16 689 19 l 674 102 b 478 70 674 102 576 70 b 324 192 369 70 324 92 l 324 594 l 666 594 l 666 674 l 324 674 l 324 856 l 228 856 l 228 674 l 76 674 l 76 594 l 228 594 z "},"ţ":{"ha":755,"x_min":0,"x_max":0,"o":"m 348 -360 l 397 -376 l 461 -215 l 461 -79 l 349 -79 l 349 -211 l 385 -211 z m 76 594 l 228 594 l 228 174 b 467 -16 228 22 319 -16 b 689 19 567 -16 689 19 l 674 102 b 478 70 674 102 576 70 b 324 192 369 70 324 92 l 324 594 l 666 594 l 666 674 l 324 674 l 324 856 l 228 856 l 228 674 l 76 674 z "},"ť":{"ha":755,"x_min":0,"x_max":0,"o":"m 478 1085 l 442 807 l 526 796 l 576 1072 z m 76 594 l 228 594 l 228 174 b 467 -16 228 22 319 -16 b 689 19 567 -16 689 19 l 674 102 b 478 70 674 102 576 70 b 324 192 369 70 324 92 l 324 594 l 666 594 l 666 674 l 324 674 l 324 856 l 228 856 l 228 674 l 76 674 z "},"ț":{"ha":755,"x_min":0,"x_max":0,"o":"m 376 -360 l 424 -376 l 489 -215 l 489 -79 l 376 -79 l 376 -211 l 413 -211 z m 76 594 l 228 594 l 228 174 b 467 -16 228 22 319 -16 b 689 19 567 -16 689 19 l 674 102 b 478 70 674 102 576 70 b 324 192 369 70 324 92 l 324 594 l 666 594 l 666 674 l 324 674 l 324 856 l 228 856 l 228 674 l 76 674 z "},"u":{"ha":997,"x_min":0,"x_max":0,"o":"m 125 293 b 426 -16 125 48 248 -16 b 772 87 578 -16 710 49 l 783 0 l 858 0 l 858 674 l 763 674 l 763 172 b 437 70 734 154 601 70 b 221 334 277 70 221 130 l 221 674 l 125 674 z "},"ù":{"ha":997,"x_min":0,"x_max":0,"o":"m 296 951 l 514 756 l 569 808 l 372 1024 z m 125 293 b 426 -16 125 48 248 -16 b 772 87 578 -16 710 49 l 783 0 l 858 0 l 858 674 l 763 674 l 763 172 b 437 70 734 154 601 70 b 221 334 277 70 221 130 l 221 674 l 125 674 z "},"ú":{"ha":997,"x_min":0,"x_max":0,"o":"m 125 293 b 426 -16 125 48 248 -16 b 772 87 578 -16 710 49 l 783 0 l 858 0 l 858 674 l 763 674 l 763 172 b 437 70 734 154 601 70 b 221 334 277 70 221 130 l 221 674 l 125 674 z m 418 808 l 472 756 l 690 951 l 619 1024 z "},"û":{"ha":997,"x_min":0,"x_max":0,"o":"m 295 810 l 359 756 l 499 938 l 634 756 l 702 813 l 563 990 l 440 990 z m 125 293 b 426 -16 125 48 248 -16 b 772 87 578 -16 710 49 l 783 0 l 858 0 l 858 674 l 763 674 l 763 172 b 437 70 734 154 601 70 b 221 334 277 70 221 130 l 221 674 l 125 674 z "},"ü":{"ha":997,"x_min":0,"x_max":0,"o":"m 331 910 l 331 783 l 427 783 l 427 910 z m 125 293 b 426 -16 125 48 248 -16 b 772 87 578 -16 710 49 l 783 0 l 858 0 l 858 674 l 763 674 l 763 172 b 437 70 734 154 601 70 b 221 334 277 70 221 130 l 221 674 l 125 674 z m 554 783 l 650 783 l 650 910 l 554 910 z "},"ũ":{"ha":997,"x_min":0,"x_max":0,"o":"m 125 293 b 426 -16 125 48 248 -16 b 772 87 578 -16 710 49 l 783 0 l 858 0 l 858 674 l 763 674 l 763 172 b 437 70 734 154 601 70 b 221 334 277 70 221 130 l 221 674 l 125 674 z m 253 817 l 315 776 b 408 849 335 815 360 849 b 470 817 428 849 447 834 b 590 767 501 794 538 767 b 748 890 659 767 709 797 l 685 928 b 591 846 656 867 637 846 b 510 890 567 846 541 868 b 409 928 482 909 449 928 b 253 817 344 928 286 900 z "},"ū":{"ha":997,"x_min":0,"x_max":0,"o":"m 125 293 b 426 -16 125 48 248 -16 b 772 87 578 -16 710 49 l 783 0 l 858 0 l 858 674 l 763 674 l 763 172 b 437 70 734 154 601 70 b 221 334 277 70 221 130 l 221 674 l 125 674 z m 297 783 l 692 783 l 692 863 l 297 863 z "},"ŭ":{"ha":997,"x_min":0,"x_max":0,"o":"m 125 293 b 426 -16 125 48 248 -16 b 772 87 578 -16 710 49 l 783 0 l 858 0 l 858 674 l 763 674 l 763 172 b 437 70 734 154 601 70 b 221 334 277 70 221 130 l 221 674 l 125 674 z m 304 945 b 494 756 312 840 361 756 b 683 945 623 756 674 847 l 606 957 b 494 827 590 854 547 827 b 381 957 443 827 397 854 z "},"ů":{"ha":997,"x_min":0,"x_max":0,"o":"m 125 293 b 426 -16 125 48 248 -16 b 772 87 578 -16 710 49 l 783 0 l 858 0 l 858 674 l 763 674 l 763 172 b 437 70 734 154 601 70 b 221 334 277 70 221 130 l 221 674 l 125 674 z m 342 889 b 492 756 342 810 401 756 b 643 889 583 756 643 810 b 492 1021 643 968 582 1021 b 342 889 403 1021 342 968 z m 413 889 b 492 962 413 927 440 962 b 572 889 544 962 572 927 b 492 816 572 851 544 816 b 413 889 440 816 413 851 z "},"ű":{"ha":997,"x_min":0,"x_max":0,"o":"m 125 293 b 426 -16 125 48 248 -16 b 772 87 578 -16 710 49 l 783 0 l 858 0 l 858 674 l 763 674 l 763 172 b 437 70 734 154 601 70 b 221 334 277 70 221 130 l 221 674 l 125 674 z m 298 797 l 361 756 l 522 958 l 435 1015 z m 568 810 l 628 763 l 812 946 l 731 1011 z "},"ų":{"ha":997,"x_min":0,"x_max":0,"o":"m 616 -153 b 776 -290 616 -240 673 -290 b 901 -270 838 -290 884 -276 l 885 -206 b 776 -222 858 -216 814 -222 b 695 -143 741 -222 695 -199 b 858 0 695 -100 739 -52 l 858 674 l 763 674 l 763 172 b 437 70 734 154 601 70 b 221 334 277 70 221 130 l 221 674 l 125 674 l 125 293 b 426 -16 125 48 248 -16 b 772 87 578 -16 710 49 l 780 26 b 616 -153 678 -21 616 -79 z "},"v":{"ha":816,"x_min":0,"x_max":0,"o":"m 26 656 l 343 0 l 473 0 l 794 656 l 712 697 l 410 68 l 113 697 z "},"w":{"ha":1232,"x_min":0,"x_max":0,"o":"m 30 662 l 295 0 l 420 0 l 619 608 l 824 0 l 953 0 l 1202 660 l 1115 690 l 888 76 l 694 674 l 550 674 l 356 83 l 122 695 z "},"ŵ":{"ha":1232,"x_min":0,"x_max":0,"o":"m 415 810 l 478 756 l 619 938 l 753 756 l 822 813 l 682 990 l 559 990 z m 30 662 l 295 0 l 420 0 l 619 608 l 824 0 l 953 0 l 1202 660 l 1115 690 l 888 76 l 694 674 l 550 674 l 356 83 l 122 695 z "},"ẁ":{"ha":1232,"x_min":0,"x_max":0,"o":"m 421 951 l 639 756 l 694 808 l 497 1024 z m 30 662 l 295 0 l 420 0 l 619 608 l 824 0 l 953 0 l 1202 660 l 1115 690 l 888 76 l 694 674 l 550 674 l 356 83 l 122 695 z "},"ẃ":{"ha":1232,"x_min":0,"x_max":0,"o":"m 558 808 l 613 756 l 830 951 l 759 1024 z m 30 662 l 295 0 l 420 0 l 619 608 l 824 0 l 953 0 l 1202 660 l 1115 690 l 888 76 l 694 674 l 550 674 l 356 83 l 122 695 z "},"ẅ":{"ha":1232,"x_min":0,"x_max":0,"o":"m 459 910 l 459 783 l 555 783 l 555 910 z m 30 662 l 295 0 l 420 0 l 619 608 l 824 0 l 953 0 l 1202 660 l 1115 690 l 888 76 l 694 674 l 550 674 l 356 83 l 122 695 z m 682 783 l 778 783 l 778 910 l 682 910 z "},"x":{"ha":842,"x_min":0,"x_max":0,"o":"m 45 44 l 109 -16 l 417 295 l 742 -16 l 807 48 l 484 356 l 762 633 l 702 693 l 426 412 l 140 693 l 74 628 l 357 353 z "},"y":{"ha":815,"x_min":0,"x_max":0,"o":"m 325 -290 l 793 654 l 710 697 l 422 106 l 124 697 l 42 652 l 371 5 l 242 -248 z "},"ý":{"ha":815,"x_min":0,"x_max":0,"o":"m 325 -290 l 793 654 l 710 697 l 422 106 l 124 697 l 42 652 l 371 5 l 242 -248 z m 344 808 l 399 756 l 616 951 l 545 1024 z "},"ÿ":{"ha":815,"x_min":0,"x_max":0,"o":"m 325 -290 l 793 654 l 710 697 l 422 106 l 124 697 l 42 652 l 371 5 l 242 -248 z m 253 783 l 349 783 l 349 910 l 253 910 z m 476 783 l 572 783 l 572 910 l 476 910 z "},"ŷ":{"ha":815,"x_min":0,"x_max":0,"o":"m 325 -290 l 793 654 l 710 697 l 422 106 l 124 697 l 42 652 l 371 5 l 242 -248 z m 225 810 l 289 756 l 429 938 l 564 756 l 632 813 l 492 990 l 369 990 z "},"z":{"ha":865,"x_min":0,"x_max":0,"o":"m 83 105 l 83 0 l 803 0 l 803 81 l 186 81 l 769 576 l 769 674 l 113 674 l 113 594 l 662 594 z "},"ź":{"ha":865,"x_min":0,"x_max":0,"o":"m 83 105 l 83 0 l 803 0 l 803 81 l 186 81 l 769 576 l 769 674 l 113 674 l 113 594 l 662 594 z m 342 808 l 397 756 l 614 951 l 543 1024 z "},"ż":{"ha":865,"x_min":0,"x_max":0,"o":"m 401 910 l 401 783 l 497 783 l 497 910 z m 83 0 l 803 0 l 803 81 l 186 81 l 769 576 l 769 674 l 113 674 l 113 594 l 662 594 l 83 105 z "},"ž":{"ha":865,"x_min":0,"x_max":0,"o":"m 83 105 l 83 0 l 803 0 l 803 81 l 186 81 l 769 576 l 769 674 l 113 674 l 113 594 l 662 594 z m 253 947 l 393 769 l 516 769 l 660 950 l 597 1004 l 456 822 l 322 1004 z "},"ª":{"ha":634,"x_min":0,"x_max":0,"o":"m 101 561 b 269 437 101 460 191 437 b 469 495 352 437 422 465 l 478 446 l 544 446 l 544 662 b 335 869 544 815 467 869 b 142 835 261 869 192 852 l 160 768 b 336 802 195 781 262 802 b 465 701 422 802 456 771 b 381 703 435 703 408 703 b 101 561 194 703 101 657 z m 181 565 b 408 644 181 612 236 644 b 467 642 427 644 447 643 l 467 566 b 282 504 417 533 353 504 b 181 565 206 504 181 522 z "},"º":{"ha":653,"x_min":0,"x_max":0,"o":"m 69 652 b 326 437 69 510 184 437 b 584 652 466 437 584 510 b 326 869 584 794 467 869 b 69 652 187 869 69 794 z m 156 653 b 326 800 156 749 228 800 b 497 653 426 800 497 749 b 326 507 497 556 426 507 b 156 653 228 507 156 556 z "},"ß":{"ha":962,"x_min":0,"x_max":0,"o":"m 581 -16 b 878 253 745 -16 878 59 b 692 513 878 457 769 498 b 815 713 765 543 815 598 b 494 982 815 907 673 982 b 153 693 316 982 153 907 l 153 0 l 249 0 l 249 678 b 494 896 249 833 344 896 b 714 717 631 896 714 838 b 516 533 714 598 624 533 l 438 533 l 438 453 l 536 453 b 777 250 705 453 777 408 b 587 69 777 133 715 69 b 388 113 485 69 439 89 l 356 31 b 581 -16 410 3 478 -16 z "},"æ":{"ha":1417,"x_min":0,"x_max":0,"o":"m 1017 -16 b 1318 67 1140 -16 1224 15 l 1278 146 b 1022 69 1212 108 1131 69 b 749 302 859 69 760 153 l 1323 302 b 1329 374 1326 322 1329 337 b 1013 692 1329 547 1215 692 b 713 540 856 692 763 625 b 447 692 670 651 580 692 b 181 637 352 692 249 667 l 210 553 b 458 608 258 576 340 608 b 653 417 578 608 636 551 b 546 420 615 419 580 420 b 116 184 281 420 116 356 b 372 -16 116 26 242 -16 b 724 108 522 -16 644 47 b 1017 -16 776 38 867 -16 z m 217 190 b 576 340 217 294 337 340 b 658 340 603 340 630 340 l 658 327 b 685 181 658 282 665 230 b 385 69 605 119 492 69 b 217 190 270 69 217 111 z m 751 381 b 1013 607 767 523 858 607 b 1231 381 1149 607 1231 509 z "},"ǽ":{"ha":1430,"x_min":0,"x_max":0,"o":"m 1017 -16 b 1318 67 1140 -16 1224 15 l 1278 146 b 1022 69 1212 108 1131 69 b 749 302 859 69 760 153 l 1323 302 b 1329 374 1326 322 1329 337 b 1013 692 1329 547 1215 692 b 713 540 856 692 763 625 b 447 692 670 651 580 692 b 181 637 352 692 249 667 l 210 553 b 458 608 258 576 340 608 b 653 417 578 608 636 551 b 546 420 615 419 580 420 b 116 184 281 420 116 356 b 372 -16 116 26 242 -16 b 724 108 522 -16 644 47 b 1017 -16 776 38 867 -16 z m 217 190 b 576 340 217 294 337 340 b 658 340 603 340 630 340 l 658 327 b 685 181 658 282 665 230 b 385 69 605 119 492 69 b 217 190 270 69 217 111 z m 640 808 l 694 756 l 911 951 l 840 1024 z m 751 381 b 1013 607 767 523 858 607 b 1231 381 1149 607 1231 509 z "},"ð":{"ha":985,"x_min":0,"x_max":0,"o":"m 466 -16 b 899 397 726 -16 899 133 b 620 883 899 626 785 788 l 678 982 l 608 1018 l 550 917 b 302 980 474 951 390 972 l 283 898 b 505 840 364 889 438 870 l 449 744 l 518 708 l 574 803 b 796 480 690 733 770 624 b 459 651 719 601 590 651 b 87 319 243 651 87 515 b 466 -16 87 77 284 -16 z m 188 315 b 460 565 188 472 297 565 b 803 346 604 565 740 490 b 472 70 787 149 628 70 b 188 315 310 70 188 157 z "},"ø":{"ha":997,"x_min":0,"x_max":0,"o":"m 88 47 l 145 -14 l 233 60 b 499 -16 303 10 395 -16 b 901 338 724 -16 901 110 b 827 558 901 428 874 501 l 911 628 l 856 692 l 765 617 b 499 694 694 667 601 694 b 97 338 275 694 97 568 b 171 117 97 248 124 174 z m 198 339 b 499 608 198 506 326 608 b 690 553 573 608 640 589 l 247 181 b 198 339 216 224 198 276 z m 308 123 l 751 494 b 799 339 782 453 799 400 b 499 70 799 172 671 70 b 308 123 425 70 359 89 z "},"ǿ":{"ha":997,"x_min":0,"x_max":0,"o":"m 88 47 l 145 -14 l 233 60 b 499 -16 303 10 395 -16 b 901 338 724 -16 901 110 b 827 558 901 428 874 501 l 911 628 l 856 692 l 765 617 b 499 694 694 667 601 694 b 97 338 275 694 97 568 b 171 117 97 248 124 174 z m 198 339 b 499 608 198 506 326 608 b 690 553 573 608 640 589 l 247 181 b 198 339 216 224 198 276 z m 308 123 l 751 494 b 799 339 782 453 799 400 b 499 70 799 172 671 70 b 308 123 425 70 359 89 z m 424 808 l 478 756 l 696 951 l 625 1024 z "},"þ":{"ha":980,"x_min":0,"x_max":0,"o":"m 153 -274 l 249 -274 l 249 72 b 536 -16 300 33 399 -16 b 893 335 753 -16 893 106 b 547 692 893 571 744 692 b 249 597 403 692 297 630 l 249 982 l 153 982 z m 249 166 l 249 507 b 531 606 307 552 411 606 b 792 334 693 606 792 510 b 531 70 792 160 693 70 b 249 166 439 70 348 100 z "},"đ":{"ha":976,"x_min":0,"x_max":0,"o":"m 573 866 l 573 787 l 742 787 l 742 610 b 467 692 676 652 588 692 b 97 333 259 692 97 572 b 448 -16 97 105 244 -16 b 749 86 603 -16 708 53 l 760 0 l 838 0 l 838 787 l 969 787 l 969 866 l 838 866 l 838 982 l 742 982 l 742 866 z m 199 334 b 464 606 199 513 309 606 b 742 515 551 606 650 577 l 742 172 b 463 69 685 127 591 69 b 199 334 301 69 199 159 z "},"ħ":{"ha":966,"x_min":0,"x_max":0,"o":"m 44 866 l 44 787 l 139 787 l 139 0 l 235 0 l 235 513 b 553 606 263 529 385 606 b 745 417 676 606 745 553 l 745 0 l 841 0 l 841 428 b 559 692 841 635 710 692 b 235 599 406 692 286 631 l 235 787 l 440 787 l 440 866 l 235 866 l 235 982 l 139 982 l 139 866 z "},"ı":{"ha":374,"x_min":0,"x_max":0,"o":"m 139 674 l 139 0 l 235 0 l 235 674 z "},"ĳ":{"ha":884,"x_min":0,"x_max":0,"o":"m 186 674 l 186 0 l 282 0 l 282 674 z m 186 783 l 282 783 l 282 910 l 186 910 z m 458 -199 l 493 -290 b 745 0 669 -222 745 -148 l 745 674 l 649 674 l 649 10 b 458 -199 649 -92 569 -155 z m 649 783 l 745 783 l 745 910 l 649 910 z "},"ĸ":{"ha":915,"x_min":0,"x_max":0,"o":"m 496 359 l 776 -16 l 851 37 l 569 416 l 828 619 l 775 688 l 235 263 l 235 674 l 139 674 l 139 0 l 235 0 l 235 158 z "},"ŀ":{"ha":374,"x_min":0,"x_max":0,"o":"m 139 982 l 139 0 l 235 0 l 235 982 z m 313 435 l 428 435 l 428 572 l 313 572 z "},"ł":{"ha":440,"x_min":0,"x_max":0,"o":"m -17 388 l 17 316 l 142 374 l 142 0 l 238 0 l 238 419 l 456 519 l 422 592 l 238 506 l 238 982 l 142 982 l 142 462 z "},"ŉ":{"ha":987,"x_min":0,"x_max":0,"o":"m -39 743 l 10 727 l 74 888 l 74 1024 l -38 1024 l -38 892 l -1 892 z m 139 0 l 235 0 l 235 510 b 565 606 264 526 390 606 b 766 417 693 606 766 553 l 766 0 l 862 0 l 862 428 b 572 692 862 635 728 692 b 235 599 406 692 289 631 l 221 674 l 139 674 z "},"ŋ":{"ha":987,"x_min":0,"x_max":0,"o":"m 546 -199 l 551 -283 b 862 -31 733 -283 862 -212 l 862 428 b 572 692 862 635 728 692 b 235 599 406 692 289 631 l 221 674 l 139 674 l 139 0 l 235 0 l 235 513 b 565 606 264 529 390 606 b 766 417 693 606 766 553 l 766 -15 b 546 -199 766 -172 638 -198 z "},"œ":{"ha":1519,"x_min":0,"x_max":0,"o":"m 458 -16 b 782 158 606 -16 724 45 b 1111 -16 837 40 953 -16 b 1420 67 1237 -16 1324 15 l 1378 148 b 1116 69 1310 111 1236 69 b 837 296 955 69 852 148 l 1424 296 b 1431 367 1429 315 1431 331 b 1108 692 1431 544 1313 692 b 785 513 955 692 840 628 b 458 694 728 631 608 694 b 87 338 251 694 87 568 b 458 -16 87 110 247 -16 z m 188 339 b 458 608 188 506 302 608 b 733 339 613 608 733 506 b 458 71 733 172 613 71 b 188 339 302 71 188 172 z m 837 374 b 1108 606 851 526 958 606 b 1334 381 1247 606 1334 506 l 1334 374 z "},"ŧ":{"ha":755,"x_min":0,"x_max":0,"o":"m 76 403 l 76 326 l 228 326 l 228 174 b 467 -16 228 22 319 -16 b 689 19 567 -16 689 19 l 674 102 b 478 70 674 102 576 70 b 324 192 369 70 324 92 l 324 326 l 666 326 l 666 403 l 324 403 l 324 594 l 666 594 l 666 674 l 324 674 l 324 856 l 228 856 l 228 674 l 76 674 l 76 594 l 228 594 l 228 403 z "},"ſ":{"ha":618,"x_min":0,"x_max":0,"o":"m 215 594 l 215 0 l 310 0 l 310 774 b 518 913 310 889 370 913 b 697 890 592 913 632 904 l 715 973 b 508 999 672 983 594 999 b 215 789 328 999 215 957 l 215 674 l 76 674 l 76 594 z "},"ȷ":{"ha":428,"x_min":0,"x_max":0,"o":"m -12 -199 l 24 -290 b 276 0 200 -222 276 -148 l 276 674 l 180 674 l 180 10 b -12 -199 180 -92 100 -155 z "},"π":{"ha":1155,"x_min":0,"x_max":0,"o":"m 745 174 b 941 -15 745 22 817 -15 b 1089 21 1007 -15 1089 21 l 1069 97 b 951 66 1069 97 1012 66 b 840 190 872 66 840 90 l 840 594 l 1063 594 l 1063 674 l 69 674 l 69 594 l 269 594 l 269 0 l 365 0 l 365 594 l 745 594 z "},"¼":{"ha":1689,"x_min":0,"x_max":0,"o":"m 162 467 l 162 394 l 649 394 l 649 467 l 457 467 l 457 896 l 387 896 l 198 847 l 209 775 l 377 813 l 377 467 z m 543 10 l 611 -40 l 1319 822 l 1252 872 z m 1072 138 l 1431 138 l 1431 40 l 1508 40 l 1508 138 l 1607 138 l 1607 206 l 1508 206 l 1508 542 l 1389 542 l 1072 213 z m 1154 206 l 1431 490 l 1431 206 z "},"½":{"ha":1770,"x_min":0,"x_max":0,"o":"m 162 467 l 162 394 l 649 394 l 649 467 l 457 467 l 457 896 l 387 896 l 198 847 l 209 775 l 377 813 l 377 467 z m 544 10 l 612 -40 l 1319 822 l 1253 872 z m 1152 40 l 1674 40 l 1674 111 l 1239 111 l 1239 118 b 1415 256 1239 142 1248 208 l 1512 283 b 1660 427 1599 308 1660 346 b 1435 556 1660 515 1574 556 b 1179 500 1348 556 1243 531 l 1210 429 b 1433 483 1285 466 1370 483 b 1569 420 1522 483 1569 462 b 1475 345 1569 392 1551 367 l 1388 320 b 1152 104 1191 264 1152 189 z "},"¾":{"ha":1701,"x_min":0,"x_max":0,"o":"m 367 380 b 655 547 533 380 655 420 b 522 678 655 613 608 674 b 614 785 585 696 614 731 b 414 910 614 883 515 910 b 160 863 297 910 213 883 l 181 797 b 408 841 239 820 335 841 b 526 779 497 841 526 815 b 377 692 526 723 490 690 l 253 693 l 253 624 l 410 624 b 567 542 513 624 567 604 b 381 452 567 487 503 452 b 144 497 282 452 206 476 l 122 428 b 367 380 167 406 256 380 z m 533 10 l 601 -39 l 1309 822 l 1242 872 z m 1084 138 l 1444 138 l 1444 40 l 1521 40 l 1521 138 l 1619 138 l 1619 206 l 1521 206 l 1521 542 l 1401 542 l 1084 213 z m 1167 206 l 1444 490 l 1444 206 z "},"_":{"ha":999,"x_min":0,"x_max":0,"o":"m 42 -81 l 42 -160 l 958 -160 l 958 -81 z "},"-":{"ha":583,"x_min":0,"x_max":0,"o":"m 42 404 l 42 318 l 542 318 l 542 404 z "},"–":{"ha":917,"x_min":0,"x_max":0,"o":"m 42 404 l 42 325 l 875 325 l 875 404 z "},"—":{"ha":1355,"x_min":0,"x_max":0,"o":"m 42 404 l 42 332 l 1313 332 l 1313 404 z "},"(":{"ha":423,"x_min":0,"x_max":0,"o":"m 310 -85 l 381 -31 b 210 453 299 81 210 231 b 381 915 210 683 279 794 l 316 973 b 115 453 204 856 115 709 b 310 -85 115 185 230 11 z "},")":{"ha":426,"x_min":0,"x_max":0,"o":"m 46 -31 l 116 -85 b 312 453 197 11 312 185 b 110 973 312 709 222 856 l 45 915 b 217 453 147 794 217 683 b 46 -31 217 231 128 81 z "},"[":{"ha":497,"x_min":0,"x_max":0,"o":"m 153 994 l 153 -85 l 421 -85 l 421 -8 l 245 -8 l 245 917 l 421 917 l 421 994 z "},"]":{"ha":497,"x_min":0,"x_max":0,"o":"m 344 994 l 76 994 l 76 917 l 252 917 l 252 -8 l 76 -8 l 76 -85 l 344 -85 z "},"{":{"ha":569,"x_min":0,"x_max":0,"o":"m 492 -85 l 492 -8 b 317 91 354 -8 317 18 l 317 332 b 228 456 317 404 279 444 b 317 557 273 472 317 491 l 317 791 b 492 890 317 864 354 890 l 492 967 b 224 794 293 967 224 932 l 224 572 b 104 481 224 520 156 491 l 104 398 b 224 304 184 394 224 374 l 224 88 b 492 -85 224 -50 293 -85 z "},"}":{"ha":569,"x_min":0,"x_max":0,"o":"m 76 -8 l 76 -85 b 344 88 276 -85 344 -50 l 344 306 b 465 398 344 358 413 388 l 465 481 b 344 574 385 484 344 505 l 344 794 b 76 967 344 932 276 967 l 76 890 b 252 791 215 890 252 864 l 252 563 b 340 439 252 491 290 451 b 252 338 296 424 252 404 l 252 91 b 76 -8 252 18 215 -8 z "},"#":{"ha":1050,"x_min":0,"x_max":0,"o":"m 200 0 l 280 -16 l 339 248 l 629 248 l 575 0 l 655 -16 l 714 248 l 951 248 l 951 322 l 731 322 l 791 591 l 1012 591 l 1011 665 l 808 665 l 860 896 l 775 910 l 721 665 l 433 665 l 485 896 l 400 910 l 346 665 l 113 665 l 113 591 l 330 591 l 271 322 l 52 322 l 52 248 l 254 248 z m 356 322 l 416 591 l 705 591 l 646 322 z "},"%":{"ha":1071,"x_min":0,"x_max":0,"o":"m 54 663 b 269 451 54 516 160 451 b 490 664 381 451 490 514 b 274 877 490 813 382 877 b 54 663 167 877 54 816 z m 142 663 b 272 799 142 758 197 799 b 401 663 345 799 401 758 b 272 528 401 569 347 528 b 142 663 199 528 142 569 z m 165 31 l 233 -16 l 908 836 l 843 886 z m 581 196 b 796 -16 581 49 686 -16 b 1017 197 908 -16 1017 47 b 800 410 1017 346 908 410 b 581 196 694 410 581 349 z m 669 197 b 799 332 669 292 723 332 b 928 197 872 332 928 292 b 798 62 928 102 874 62 b 669 197 725 62 669 102 z "},"‰":{"ha":1575,"x_min":0,"x_max":0,"o":"m 54 696 b 269 484 54 549 160 484 b 490 697 381 484 490 547 b 274 910 490 846 382 910 b 54 696 167 910 54 849 z m 142 697 b 272 832 142 792 197 832 b 401 697 345 832 401 792 b 272 562 401 602 347 562 b 142 697 199 562 142 602 z m 144 31 l 211 -16 l 906 860 l 841 910 z m 580 196 b 795 -16 580 49 685 -16 b 1016 197 907 -16 1016 47 b 799 410 1016 346 908 410 b 580 196 693 410 580 349 z m 668 197 b 798 332 668 292 722 332 b 927 197 871 332 927 292 b 797 62 927 102 873 62 b 668 197 724 62 668 102 z m 1085 196 b 1300 -16 1085 49 1190 -16 b 1521 197 1412 -16 1521 47 b 1304 410 1521 346 1413 410 b 1085 196 1198 410 1085 349 z m 1173 197 b 1303 332 1173 292 1227 332 b 1432 197 1376 332 1432 292 b 1302 62 1432 102 1378 62 b 1173 197 1229 62 1173 102 z "},"'":{"ha":266,"x_min":0,"x_max":0,"o":"m 87 896 l 104 587 l 163 587 l 179 896 z "},"\"":{"ha":458,"x_min":0,"x_max":0,"o":"m 279 896 l 297 587 l 355 587 l 372 896 z m 87 896 l 104 587 l 163 587 l 179 896 z "},"‘":{"ha":275,"x_min":0,"x_max":0,"o":"m 205 881 l 155 897 l 90 722 l 90 582 l 206 582 l 206 717 l 167 717 z "},"’":{"ha":275,"x_min":0,"x_max":0,"o":"m 98 597 l 148 581 l 213 757 l 213 897 l 97 897 l 97 761 l 135 761 z "},"“":{"ha":471,"x_min":0,"x_max":0,"o":"m 401 881 l 351 897 l 286 722 l 286 582 l 401 582 l 401 717 l 363 717 z m 90 582 l 206 582 l 206 717 l 167 717 l 205 881 l 155 897 l 90 722 z "},"”":{"ha":471,"x_min":0,"x_max":0,"o":"m 98 597 l 148 581 l 213 757 l 213 897 l 97 897 l 97 761 l 135 761 z m 293 761 l 331 761 l 294 597 l 344 581 l 408 757 l 408 897 l 293 897 z "},"‚":{"ha":282,"x_min":0,"x_max":0,"o":"m 95 -178 l 145 -194 l 210 -19 l 210 121 l 94 121 l 94 -15 l 133 -15 z "},"„":{"ha":465,"x_min":0,"x_max":0,"o":"m 95 -178 l 145 -194 l 210 -19 l 210 121 l 94 121 l 94 -15 l 133 -15 z m 290 -15 l 328 -15 l 291 -178 l 341 -194 l 406 -19 l 406 121 l 290 121 z "},"‹":{"ha":458,"x_min":0,"x_max":0,"o":"m 56 338 l 341 -16 l 416 44 l 168 346 l 405 637 l 334 697 z "},"›":{"ha":458,"x_min":0,"x_max":0,"o":"m 402 343 l 117 697 l 42 638 l 290 335 l 53 44 l 124 -16 z "},"«":{"ha":737,"x_min":0,"x_max":0,"o":"m 56 338 l 334 -16 l 409 44 l 168 346 l 398 637 l 327 697 z m 335 338 l 620 -16 l 695 44 l 447 346 l 684 637 l 613 697 z "},"»":{"ha":737,"x_min":0,"x_max":0,"o":"m 681 338 l 410 697 l 339 637 l 569 346 l 328 44 l 403 -16 z m 42 44 l 117 -16 l 402 338 l 124 697 l 53 637 l 290 346 z "},"*":{"ha":471,"x_min":0,"x_max":0,"o":"m 201 648 l 201 508 l 270 508 l 270 648 l 397 575 l 429 632 l 301 706 l 429 780 l 397 837 l 270 764 l 270 903 l 201 903 l 201 764 l 74 837 l 42 780 l 169 706 l 42 632 l 74 575 z "},"†":{"ha":539,"x_min":0,"x_max":0,"o":"m 222 597 l 233 -90 l 306 -90 l 317 597 l 469 597 l 469 674 l 317 674 l 317 931 l 222 931 l 222 674 l 69 674 l 69 597 z "},"‡":{"ha":539,"x_min":0,"x_max":0,"o":"m 226 306 l 233 -90 l 306 -90 l 313 306 l 469 306 l 469 383 l 314 383 l 317 597 l 469 597 l 469 674 l 317 674 l 317 931 l 222 931 l 222 674 l 69 674 l 69 597 l 222 597 l 225 383 l 69 383 l 69 306 z "},".":{"ha":282,"x_min":0,"x_max":0,"o":"m 83 137 l 83 0 l 199 0 l 199 137 z "},",":{"ha":283,"x_min":0,"x_max":0,"o":"m 133 -197 l 199 -4 l 199 135 l 84 135 l 84 0 l 122 0 l 83 -181 z "},":":{"ha":282,"x_min":0,"x_max":0,"o":"m 83 137 l 83 0 l 199 0 l 199 137 z m 83 538 l 199 538 l 199 674 l 83 674 z "},";":{"ha":284,"x_min":0,"x_max":0,"o":"m 133 -197 l 199 -4 l 199 135 l 84 135 l 84 0 l 122 0 l 83 -181 z m 85 538 l 201 538 l 201 674 l 85 674 z "},"…":{"ha":846,"x_min":0,"x_max":0,"o":"m 647 137 l 647 0 l 763 0 l 763 137 z m 83 0 l 199 0 l 199 137 l 83 137 z m 366 0 l 481 0 l 481 137 l 366 137 z "},"!":{"ha":443,"x_min":0,"x_max":0,"o":"m 172 603 l 186 236 l 258 236 l 272 601 l 272 896 l 172 896 z m 167 0 l 276 0 l 276 133 l 167 133 z "},"¡":{"ha":443,"x_min":0,"x_max":0,"o":"m 271 169 l 257 536 l 185 536 l 172 172 l 172 -124 l 271 -124 z m 167 639 l 276 639 l 276 772 l 167 772 z "},"?":{"ha":747,"x_min":0,"x_max":0,"o":"m 261 311 l 261 249 l 364 249 l 364 298 b 513 460 364 374 436 416 b 694 678 600 511 694 565 b 382 910 694 844 572 910 b 35 834 256 910 119 872 l 67 747 b 390 823 172 793 274 823 b 592 676 501 823 592 785 b 447 527 592 610 522 570 b 261 311 358 476 261 421 z m 261 0 l 371 0 l 371 133 l 261 133 z "},"¿":{"ha":747,"x_min":0,"x_max":0,"o":"m 485 461 l 485 523 l 383 523 l 383 474 b 233 312 383 398 310 356 b 53 94 147 261 53 207 b 365 -138 53 -72 174 -138 b 712 -62 491 -138 627 -100 l 679 25 b 356 -51 574 -21 472 -51 b 155 96 245 -51 155 -12 b 299 245 155 162 224 202 b 485 461 388 296 485 351 z m 376 639 l 485 639 l 485 772 l 376 772 z "},"/":{"ha":540,"x_min":0,"x_max":0,"o":"m 21 -196 l 108 -222 l 519 1012 l 431 1039 z "},"\\":{"ha":536,"x_min":0,"x_max":0,"o":"m 21 1012 l 428 -222 l 515 -196 l 108 1039 z "},"⁄":{"ha":498,"x_min":0,"x_max":0,"o":"m -139 10 l -71 -39 l 637 822 l 570 872 z "},"|":{"ha":433,"x_min":0,"x_max":0,"o":"m 167 1059 l 167 -297 l 266 -297 l 266 1059 z "},"¦":{"ha":433,"x_min":0,"x_max":0,"o":"m 167 316 l 167 -297 l 266 -297 l 266 316 z m 167 486 l 266 486 l 266 1059 l 167 1059 z "},"@":{"ha":1466,"x_min":0,"x_max":0,"o":"m 118 358 b 707 -194 118 -62 391 -194 b 1113 -131 883 -194 1036 -158 l 1086 -58 b 715 -117 1008 -77 914 -117 b 207 361 416 -117 207 16 b 756 855 207 692 427 855 b 1276 397 1053 855 1276 717 b 1149 133 1276 205 1202 133 b 1074 203 1118 133 1074 144 l 1074 372 b 746 686 1074 605 954 686 b 477 631 649 686 547 660 l 506 553 b 759 608 556 575 637 608 b 981 435 899 608 962 554 b 836 441 929 439 881 441 b 416 228 569 441 416 370 b 653 50 416 85 545 50 b 992 167 800 50 917 110 b 1131 49 1003 87 1064 49 b 1362 400 1249 49 1362 132 b 760 935 1362 789 1092 935 b 118 358 418 935 118 772 z m 513 233 b 881 372 513 313 610 372 b 987 369 913 372 949 372 l 990 251 b 674 128 910 188 798 128 b 513 233 563 128 513 167 z "},"&":{"ha":1146,"x_min":0,"x_max":0,"o":"m 459 -16 b 818 113 599 -16 729 19 b 1010 -16 877 73 940 30 l 1058 59 b 872 185 991 103 929 145 b 940 487 930 283 940 395 l 852 487 b 795 238 849 378 828 298 b 335 717 474 463 335 593 b 514 824 335 788 402 824 b 720 779 574 824 653 800 l 747 866 b 510 910 681 892 583 910 b 235 708 369 910 235 863 b 353 473 235 633 269 561 b 140 208 212 415 140 329 b 459 -16 140 32 317 -16 z m 241 222 b 414 415 241 324 329 379 b 741 166 492 345 599 265 b 474 71 660 85 551 71 b 241 222 375 71 241 105 z "},"§":{"ha":957,"x_min":0,"x_max":0,"o":"m 165 -34 l 127 -115 b 467 -190 183 -148 289 -190 b 822 49 679 -190 822 -126 b 744 209 822 130 792 179 b 850 376 810 244 850 301 b 258 697 850 732 258 464 b 487 830 258 792 349 830 b 756 779 599 830 677 808 l 788 859 b 494 910 722 885 612 910 b 167 692 338 910 167 863 b 258 531 167 606 203 558 b 139 360 192 499 139 448 b 735 45 139 25 735 295 b 474 -105 735 -53 664 -105 b 165 -34 324 -105 246 -75 z m 231 369 b 360 503 231 447 293 482 b 763 372 535 479 763 527 b 654 243 763 311 731 267 b 231 369 479 280 231 220 z "},"¶":{"ha":944,"x_min":0,"x_max":0,"o":"m 385 347 l 495 347 l 495 -158 l 594 -158 l 594 896 l 385 896 b 63 619 174 896 63 795 b 385 347 63 432 191 347 z m 678 -158 l 777 -158 l 777 896 l 678 896 z "},"·":{"ha":282,"x_min":0,"x_max":0,"o":"m 83 554 l 83 417 l 199 417 l 199 554 z "},"•":{"ha":342,"x_min":0,"x_max":0,"o":"m 83 522 l 83 328 l 258 328 l 258 522 z "},"+":{"ha":844,"x_min":0,"x_max":0,"o":"m 376 370 l 376 90 l 468 90 l 468 370 l 774 370 l 774 456 l 468 456 l 468 709 l 376 709 l 376 456 l 69 456 l 69 370 z "},"−":{"ha":844,"x_min":0,"x_max":0,"o":"m 69 456 l 69 370 l 774 370 l 774 456 z "},"±":{"ha":844,"x_min":0,"x_max":0,"o":"m 376 502 l 376 228 l 468 228 l 468 502 l 774 502 l 774 588 l 468 588 l 468 827 l 376 827 l 376 588 l 69 588 l 69 502 z m 69 49 l 774 49 l 774 135 l 69 135 z "},"÷":{"ha":844,"x_min":0,"x_max":0,"o":"m 364 241 l 364 118 l 479 118 l 479 241 z m 69 370 l 774 370 l 774 456 l 69 456 z m 364 572 l 479 572 l 479 695 l 364 695 z "},"×":{"ha":727,"x_min":0,"x_max":0,"o":"m 69 162 l 133 101 l 361 327 l 594 103 l 658 166 l 428 387 l 642 599 l 583 658 l 371 443 l 152 658 l 87 594 l 301 385 z "},"=":{"ha":844,"x_min":0,"x_max":0,"o":"m 69 352 l 69 266 l 774 266 l 774 352 z m 69 478 l 774 478 l 774 565 l 69 565 z "},"<":{"ha":906,"x_min":0,"x_max":0,"o":"m 118 331 l 758 31 l 801 115 l 186 397 l 799 662 l 760 743 l 118 460 z "},">":{"ha":906,"x_min":0,"x_max":0,"o":"m 160 31 l 801 313 l 801 443 l 161 743 l 118 660 l 734 378 l 120 113 z "},"≤":{"ha":927,"x_min":0,"x_max":0,"o":"m 118 459 l 791 200 l 827 288 l 200 526 l 823 743 l 792 828 l 118 589 z m 118 0 l 823 0 l 823 86 l 118 86 z "},"≥":{"ha":927,"x_min":0,"x_max":0,"o":"m 119 285 l 150 200 l 823 451 l 823 581 l 159 828 l 123 740 l 742 513 z m 118 0 l 823 0 l 823 86 l 118 86 z "},"≈":{"ha":839,"x_min":0,"x_max":0,"o":"m 272 299 b 570 227 397 299 467 227 b 769 297 656 227 705 252 l 733 361 b 579 316 688 331 643 316 b 281 388 476 316 405 388 b 69 321 194 388 116 348 l 98 248 b 272 299 143 274 206 299 z m 69 549 l 98 476 b 272 527 143 502 206 527 b 570 456 397 527 467 456 b 769 526 656 456 705 481 l 733 590 b 579 544 688 560 643 544 b 281 616 476 544 405 616 b 69 549 194 616 116 576 z "},"≠":{"ha":844,"x_min":0,"x_max":0,"o":"m 267 110 l 353 84 l 413 266 l 774 266 l 774 345 l 440 345 l 487 485 l 774 485 l 774 565 l 513 565 l 566 723 l 480 750 l 418 565 l 69 565 l 69 485 l 392 485 l 345 345 l 69 345 l 69 266 l 319 266 z "},"¬":{"ha":847,"x_min":0,"x_max":0,"o":"m 698 325 l 698 175 l 777 175 l 777 404 l 69 404 l 69 325 z "},"←":{"ha":1105,"x_min":0,"x_max":0,"o":"m 122 417 l 382 157 l 443 217 l 249 411 l 1018 411 l 1018 497 l 249 497 l 444 689 l 381 751 l 122 491 z "},"↑":{"ha":802,"x_min":0,"x_max":0,"o":"m 358 769 l 358 0 l 444 0 l 444 769 l 636 574 l 698 637 l 438 897 l 364 897 l 104 636 l 165 575 z "},"→":{"ha":1105,"x_min":0,"x_max":0,"o":"m 662 217 l 723 157 l 983 417 l 983 491 l 724 751 l 661 689 l 856 497 l 87 497 l 87 411 l 856 411 z "},"↓":{"ha":802,"x_min":0,"x_max":0,"o":"m 104 260 l 364 0 l 438 0 l 698 260 l 636 322 l 444 128 l 444 897 l 358 897 l 358 127 l 165 322 z "},"∂":{"ha":1082,"x_min":0,"x_max":0,"o":"m 507 -16 b 964 422 776 -16 964 115 b 517 910 964 719 808 910 b 174 809 363 910 235 852 l 211 738 b 518 825 310 801 406 825 b 869 431 738 825 869 681 l 869 415 b 513 576 819 492 701 576 b 146 280 380 576 146 510 b 507 -16 146 68 330 -16 z m 245 276 b 513 488 245 433 380 488 b 860 325 685 488 799 424 b 517 67 826 134 690 67 b 245 276 360 67 245 140 z "},"∆":{"ha":1157,"x_min":0,"x_max":0,"o":"m 508 982 l 52 0 l 1105 0 l 644 982 z m 197 87 l 576 906 l 954 87 z "},"∏":{"ha":1073,"x_min":0,"x_max":0,"o":"m 167 896 l 167 -170 l 266 -170 l 266 813 l 807 813 l 807 -170 l 906 -170 l 906 896 z "},"∑":{"ha":967,"x_min":0,"x_max":0,"o":"m 122 -49 l 122 -165 l 898 -165 l 898 -80 l 222 -80 l 663 374 l 222 811 l 891 811 l 891 896 l 122 896 l 122 776 l 538 372 z "},"µ":{"ha":1011,"x_min":0,"x_max":0,"o":"m 139 674 l 139 -274 l 235 -274 l 235 45 b 440 -16 287 -2 353 -16 b 785 87 592 -16 724 49 l 797 1 l 872 1 l 872 674 l 776 674 l 776 168 b 451 72 748 152 615 72 b 235 334 303 72 235 124 l 235 674 z "},"∕":{"ha":540,"x_min":0,"x_max":0,"o":"m 21 -196 l 108 -222 l 519 1012 l 431 1039 z "},"√":{"ha":872,"x_min":0,"x_max":0,"o":"m 171 476 l 380 0 l 510 0 l 941 950 l 860 988 l 449 69 l 240 560 l 41 560 l 41 476 z "},"∞":{"ha":1308,"x_min":0,"x_max":0,"o":"m 104 334 b 358 88 104 181 201 88 b 606 215 452 88 531 124 l 650 269 l 698 215 b 951 88 778 125 849 88 b 1203 334 1106 88 1203 181 b 950 590 1203 501 1097 590 b 719 474 855 590 786 552 l 656 395 l 581 483 b 358 590 515 560 455 590 b 104 334 219 590 104 501 z m 193 338 b 358 513 193 440 252 513 b 506 431 408 513 449 496 l 597 330 l 540 264 b 365 165 492 208 438 165 b 193 338 254 165 193 236 z m 708 335 l 780 426 b 951 513 834 494 895 513 b 1115 338 1056 513 1115 440 b 944 165 1115 236 1054 165 b 769 265 870 165 817 208 z "},"∫":{"ha":801,"x_min":0,"x_max":0,"o":"m 15 -183 l -3 -264 b 183 -290 -3 -264 97 -290 b 449 -80 347 -290 449 -248 l 449 774 b 628 915 449 890 500 915 b 787 892 697 915 731 906 l 805 973 b 618 999 805 973 705 999 b 353 789 455 999 353 957 l 353 -65 b 173 -206 353 -181 301 -206 b 15 -183 104 -206 71 -197 z "},"$":{"ha":949,"x_min":0,"x_max":0,"o":"m 344 56 l 344 -90 l 417 -90 l 417 50 b 478 49 431 49 464 49 b 544 53 501 49 524 51 l 544 -90 l 617 -90 l 617 63 b 852 290 761 90 852 161 b 617 494 852 409 781 462 l 617 742 b 756 709 667 733 715 721 l 786 789 b 617 827 741 803 684 818 l 617 986 l 544 986 l 544 834 b 491 835 527 835 509 835 b 417 832 466 835 441 834 l 417 986 l 344 986 l 344 822 b 139 629 228 797 139 739 b 344 447 139 521 217 473 l 344 142 b 140 205 235 158 167 192 l 104 124 b 344 56 156 94 240 68 z m 229 637 b 344 740 229 686 272 721 l 344 536 b 229 637 258 558 229 588 z m 417 134 l 417 435 l 487 426 b 544 419 507 424 526 422 l 544 135 b 475 132 523 133 499 132 b 417 134 455 132 435 133 z m 417 522 l 417 751 b 482 754 438 753 459 754 b 544 751 503 754 524 753 l 544 506 b 488 513 526 508 508 510 b 417 522 462 515 438 519 z m 617 146 l 617 407 b 766 282 720 385 766 349 b 617 146 766 200 699 163 z "},"¢":{"ha":873,"x_min":0,"x_max":0,"o":"m 349 53 l 349 -90 l 419 -90 l 419 40 b 477 37 438 38 458 37 b 535 38 495 37 522 37 l 535 -90 l 606 -90 l 606 45 b 803 112 677 57 747 80 l 763 184 b 606 128 718 163 665 141 l 606 606 b 750 565 651 597 699 584 l 782 645 b 606 690 735 665 680 681 l 606 819 l 535 819 l 535 695 b 497 696 523 696 510 696 b 419 690 471 696 444 694 l 419 819 l 349 819 l 349 676 b 97 360 204 633 97 526 b 349 53 97 198 197 93 z m 198 356 b 349 586 198 468 256 547 l 349 144 b 198 356 257 181 198 253 z m 419 124 l 419 607 b 503 615 445 612 474 615 b 535 614 513 615 524 615 l 535 118 b 505 117 529 118 517 117 b 419 124 476 117 450 119 z "},"£":{"ha":849,"x_min":0,"x_max":0,"o":"m 140 88 l 140 0 l 779 0 l 779 83 l 240 83 l 293 401 l 710 401 l 710 484 l 307 484 l 337 660 b 530 824 364 808 451 824 b 753 783 606 824 692 801 l 781 867 b 535 910 724 886 634 910 b 239 669 396 910 275 874 l 208 484 l 83 484 l 83 401 l 194 401 z "},"¤":{"ha":874,"x_min":0,"x_max":0,"o":"m 603 213 l 702 120 l 756 174 l 661 266 b 710 418 692 307 710 358 b 641 590 710 488 684 547 l 730 678 l 680 728 l 584 631 b 439 666 542 653 493 666 b 286 628 382 666 330 653 l 192 723 l 137 669 l 225 578 b 167 418 189 538 167 483 b 215 267 167 358 185 306 l 118 174 l 172 123 l 265 219 b 439 169 310 187 370 169 b 603 213 503 169 558 185 z m 250 418 b 439 596 250 515 315 596 b 628 418 563 596 628 515 b 439 240 628 320 563 240 b 250 418 316 240 250 320 z "},"¥":{"ha":1129,"x_min":0,"x_max":0,"o":"m 513 209 l 513 0 l 612 0 l 612 209 l 897 209 l 897 292 l 642 292 l 713 386 l 897 386 l 897 469 l 775 469 l 1067 856 l 995 910 l 565 338 l 114 910 l 42 850 l 340 469 l 231 469 l 231 386 l 406 386 l 479 292 l 231 292 l 231 209 z "},"€":{"ha":1056,"x_min":0,"x_max":0,"o":"m 199 317 b 616 -16 236 97 382 -16 b 972 78 766 -16 883 26 l 934 156 b 624 70 856 114 764 70 b 301 317 444 70 334 153 l 728 317 l 728 399 l 290 399 b 290 437 290 411 290 424 b 292 494 290 456 290 476 l 728 494 l 728 576 l 305 576 b 633 824 345 744 465 824 b 898 758 730 824 802 799 l 933 840 b 639 910 847 880 753 910 b 203 576 428 910 251 815 l 63 576 l 63 494 l 192 494 b 190 436 190 475 190 456 b 190 399 190 424 190 411 l 63 399 l 63 317 z "},"ƒ":{"ha":819,"x_min":0,"x_max":0,"o":"m -79 -182 l -104 -264 b 90 -290 -104 -264 -26 -290 b 378 -58 281 -290 365 -201 l 419 381 l 749 381 l 749 458 l 426 458 l 442 670 b 628 811 451 787 504 811 b 798 788 702 811 738 803 l 823 869 b 624 896 823 869 718 896 b 348 685 465 896 362 853 l 330 458 l 122 458 l 122 381 l 323 381 l 284 -48 b 93 -206 274 -155 213 -206 b -79 -182 31 -206 -23 -197 z "},"₱":{"ha":1158,"x_min":0,"x_max":0,"o":"m 235 438 l 235 0 l 335 0 l 335 250 l 661 250 b 1005 438 832 250 958 309 l 1138 438 l 1138 520 l 1023 520 b 1025 563 1024 534 1025 549 b 1022 622 1025 583 1024 603 l 1138 622 l 1138 704 l 1001 704 b 660 896 956 827 840 896 l 235 896 l 235 704 l 90 704 l 90 622 l 235 622 l 235 520 l 90 520 l 90 438 z m 335 340 l 335 438 l 890 438 b 668 340 854 377 784 340 z m 335 520 l 335 622 l 916 622 b 921 565 919 603 921 585 b 918 520 921 549 920 535 z m 335 704 l 335 806 l 668 806 b 887 704 773 806 847 769 z "},"^":{"ha":711,"x_min":0,"x_max":0,"o":"m 52 542 l 125 490 l 358 835 l 583 494 l 659 546 l 424 896 l 299 896 z "},"~":{"ha":744,"x_min":0,"x_max":0,"o":"m 490 275 b 675 378 586 275 654 354 l 633 432 b 491 362 611 410 554 362 b 390 403 451 362 422 382 b 249 454 353 428 313 454 b 69 365 176 454 96 388 l 104 304 b 242 367 134 327 193 367 b 354 315 290 367 316 340 b 490 275 385 294 424 275 z "},"´":{"ha":532,"x_min":0,"x_max":0,"o":"m 104 1066 l 147 997 l 428 1137 l 381 1217 z "},"`":{"ha":532,"x_min":0,"x_max":0,"o":"m 104 1137 l 385 997 l 428 1066 l 151 1217 z "},"˝":{"ha":771,"x_min":0,"x_max":0,"o":"m 177 1043 l 238 990 l 452 1201 l 385 1265 z m 451 1056 l 508 997 l 740 1189 l 678 1258 z "},"ˆ":{"ha":673,"x_min":0,"x_max":0,"o":"m 104 1042 l 165 988 l 339 1150 l 510 988 l 569 1044 l 388 1208 l 294 1208 z "},"ˇ":{"ha":673,"x_min":0,"x_max":0,"o":"m 104 1182 l 285 1018 l 379 1018 l 569 1184 l 513 1239 l 339 1076 l 169 1239 z "},"˘":{"ha":628,"x_min":0,"x_max":0,"o":"m 181 1206 l 104 1194 b 315 997 112 1084 167 997 b 524 1194 458 997 515 1092 l 448 1206 b 315 1072 430 1097 378 1072 b 181 1206 254 1072 199 1097 z "},"˜":{"ha":710,"x_min":0,"x_max":0,"o":"m 341 1051 b 451 1010 372 1031 406 1010 b 606 1135 517 1010 571 1046 l 538 1168 b 451 1088 515 1113 490 1088 b 369 1124 424 1088 399 1106 b 254 1168 338 1146 301 1168 b 104 1051 192 1168 133 1133 l 171 1017 b 257 1089 189 1052 214 1089 b 341 1051 285 1089 312 1070 z "},"¯":{"ha":618,"x_min":0,"x_max":0,"o":"m 104 1110 l 104 1031 l 514 1031 l 514 1110 z "},"¨":{"ha":552,"x_min":0,"x_max":0,"o":"m 104 1127 l 104 1018 l 213 1018 l 213 1127 z m 340 1018 l 448 1018 l 448 1127 l 340 1127 z "},"˙":{"ha":317,"x_min":0,"x_max":0,"o":"m 104 1127 l 104 1018 l 213 1018 l 213 1127 z "},"˚":{"ha":523,"x_min":0,"x_max":0,"o":"m 104 1117 b 261 980 104 1039 162 980 b 419 1117 356 980 419 1039 b 261 1252 419 1194 354 1252 b 104 1117 168 1252 104 1194 z m 174 1117 b 261 1194 174 1155 204 1194 b 347 1117 318 1194 347 1155 b 261 1039 347 1078 317 1039 b 174 1117 204 1039 174 1078 z "},"¸":{"ha":527,"x_min":0,"x_max":0,"o":"m 133 -204 l 117 -270 b 247 -290 136 -276 189 -290 b 422 -152 360 -290 422 -240 b 219 63 422 -59 369 10 l 181 13 b 343 -144 325 -32 343 -99 b 253 -222 343 -195 310 -222 b 133 -204 215 -222 162 -214 z "},"˛":{"ha":603,"x_min":0,"x_max":0,"o":"m 143 -152 b 303 -290 143 -240 200 -290 b 434 -270 367 -290 415 -276 l 417 -206 b 303 -222 388 -216 343 -222 b 222 -142 268 -222 222 -199 b 413 26 222 -92 274 -31 l 353 66 b 143 -152 224 9 143 -59 z "},"©":{"ha":1186,"x_min":0,"x_max":0,"o":"m 593 -17 b 1082 444 894 -17 1082 175 b 593 903 1082 712 888 903 b 104 444 297 903 104 712 b 593 -17 104 175 290 -17 z m 190 444 b 593 826 190 660 338 826 b 997 444 849 826 997 660 b 593 61 997 227 849 61 b 190 444 338 61 190 227 z m 314 439 b 594 188 314 278 428 188 b 806 253 660 188 749 213 l 768 322 b 599 269 724 295 660 269 b 407 436 484 269 407 324 b 599 613 407 554 487 613 b 760 572 639 613 701 601 l 791 647 b 594 692 744 671 678 692 b 314 439 443 692 314 606 z "},"®":{"ha":717,"x_min":0,"x_max":0,"o":"m 401 576 l 438 490 l 495 510 l 460 589 b 500 660 487 602 500 626 b 385 747 500 721 461 747 l 235 747 l 235 498 l 301 498 l 301 576 z m 45 620 b 358 329 45 446 167 329 b 672 620 549 329 672 446 b 358 910 672 794 545 910 b 45 620 171 910 45 794 z m 112 620 b 358 851 112 750 200 851 b 604 620 515 851 604 750 b 358 390 604 490 515 390 b 112 620 201 390 112 490 z m 301 626 l 301 698 l 385 698 b 435 660 418 698 435 685 b 385 626 435 636 423 626 z "},"™":{"ha":1361,"x_min":0,"x_max":0,"o":"m 633 896 l 633 447 l 709 447 l 709 815 l 892 490 l 988 490 l 1167 822 l 1167 447 l 1243 447 l 1243 896 l 1129 896 l 942 550 l 751 896 z m 35 831 l 255 831 l 255 447 l 334 447 l 334 831 l 532 831 l 532 896 l 35 896 z "},"°":{"ha":606,"x_min":0,"x_max":0,"o":"m 63 688 b 303 464 63 553 156 464 b 544 688 449 464 544 553 b 303 910 544 822 447 910 b 63 688 159 910 63 822 z m 149 688 b 303 835 149 767 203 835 b 456 688 403 835 456 767 b 303 540 456 608 403 540 b 149 688 203 540 149 608 z "},"◊":{"ha":938,"x_min":0,"x_max":0,"o":"m 118 438 l 401 0 l 537 0 l 819 438 l 537 896 l 401 896 z m 225 438 l 467 840 l 717 438 l 471 53 z "},"₹":{"ha":1007,"x_min":0,"x_max":0,"o":"m 551 303 l 699 -16 l 786 26 l 641 333 b 793 553 726 374 783 447 l 921 553 l 921 635 l 790 635 b 669 814 778 715 734 789 l 921 814 l 921 897 l 175 897 l 175 813 l 420 813 b 693 635 585 813 674 749 l 175 635 l 175 553 l 694 553 b 420 376 681 449 604 376 l 175 376 l 175 292 l 436 292 b 551 303 476 292 515 295 z "},"ﬀ":{"ha":1260,"x_min":0,"x_max":0,"o":"m 215 0 l 310 0 l 310 594 l 790 594 l 790 0 l 885 0 l 885 594 l 1251 594 l 1251 674 l 885 674 l 885 774 b 1093 913 885 889 945 913 b 1272 890 1167 913 1207 903 l 1290 973 b 1083 999 1247 983 1169 999 b 790 789 903 999 790 957 l 790 674 l 310 674 l 310 760 b 497 899 310 875 364 899 b 656 877 565 899 599 892 l 674 959 b 487 985 631 971 570 985 b 215 775 319 985 215 943 l 215 674 l 76 674 l 76 594 l 215 594 z "},"ﬁ":{"ha":987,"x_min":0,"x_max":0,"o":"m 215 0 l 310 0 l 310 597 l 752 597 l 752 0 l 848 0 l 848 674 l 310 674 l 310 774 b 537 913 310 889 376 913 b 738 890 619 913 667 904 l 757 973 b 526 999 710 983 620 999 b 215 789 336 999 215 957 l 215 674 l 76 674 l 76 594 l 215 594 z "},"ﬂ":{"ha":1040,"x_min":0,"x_max":0,"o":"m 215 594 l 215 0 l 310 0 l 310 594 l 628 594 l 628 674 l 310 674 l 310 760 b 493 899 310 875 364 899 b 651 877 561 899 595 892 l 669 959 b 483 985 626 971 566 985 b 215 775 319 985 215 943 l 215 674 l 76 674 l 76 594 z m 806 0 l 901 0 l 901 982 l 806 982 z "},"ﬃ":{"ha":1562,"x_min":0,"x_max":0,"o":"m 215 0 l 310 0 l 310 594 l 790 594 l 790 0 l 885 0 l 885 594 l 1327 594 l 1327 0 l 1423 0 l 1423 674 l 885 674 l 885 774 b 1112 913 885 889 951 913 b 1313 890 1194 913 1242 904 l 1332 973 b 1101 999 1285 983 1195 999 b 790 789 911 999 790 957 l 790 674 l 310 674 l 310 760 b 497 899 310 875 364 899 b 656 877 565 899 599 892 l 674 959 b 487 985 631 971 570 985 b 215 775 319 985 215 943 l 215 674 l 76 674 l 76 594 l 215 594 z "},"ﬄ":{"ha":1615,"x_min":0,"x_max":0,"o":"m 215 0 l 310 0 l 310 594 l 790 594 l 790 0 l 885 0 l 885 594 l 1203 594 l 1203 674 l 885 674 l 885 760 b 1068 899 885 875 939 899 b 1226 877 1136 899 1170 892 l 1244 959 b 1058 985 1201 971 1141 985 b 790 775 894 985 790 943 l 790 674 l 310 674 l 310 760 b 497 899 310 875 364 899 b 656 877 565 899 599 892 l 674 959 b 487 985 631 971 570 985 b 215 775 319 985 215 943 l 215 674 l 76 674 l 76 594 l 215 594 z m 1381 0 l 1476 0 l 1476 982 l 1381 982 z "},"₀":{"ha":764,"x_min":0,"x_max":0,"o":"m 107 43 b 380 -217 107 -135 230 -217 b 657 47 529 -217 657 -140 b 389 313 657 231 532 313 b 107 43 247 313 107 240 z m 199 45 b 385 238 199 172 283 238 b 565 45 483 238 565 172 b 385 -143 565 -78 483 -143 b 199 45 283 -143 199 -78 z "},"₁":{"ha":764,"x_min":0,"x_max":0,"o":"m 162 -130 l 162 -203 l 649 -203 l 649 -130 l 457 -130 l 457 299 l 387 299 l 198 250 l 209 178 l 377 215 l 377 -130 z "},"₂":{"ha":764,"x_min":0,"x_max":0,"o":"m 146 -139 l 146 -203 l 667 -203 l 667 -132 l 233 -132 l 233 -125 b 409 13 233 -101 242 -35 l 506 40 b 653 184 593 65 653 103 b 428 313 653 272 567 313 b 173 257 342 313 237 288 l 203 186 b 426 240 279 223 364 240 b 563 177 516 240 563 219 b 469 102 563 149 544 124 l 381 77 b 146 -139 185 21 146 -54 z "},"₃":{"ha":764,"x_min":0,"x_max":0,"o":"m 367 -217 b 655 -50 533 -217 655 -177 b 522 81 655 16 608 77 b 614 188 585 99 614 133 b 414 313 614 286 515 313 b 160 266 297 313 213 286 l 181 199 b 408 244 239 223 335 244 b 526 182 497 244 526 217 b 377 94 526 126 490 93 l 253 96 l 253 27 l 410 27 b 567 -56 513 27 567 7 b 381 -145 567 -110 503 -145 b 144 -100 282 -145 206 -122 l 122 -169 b 367 -217 167 -191 256 -217 z "},"₄":{"ha":764,"x_min":0,"x_max":0,"o":"m 506 -105 l 506 -203 l 583 -203 l 583 -105 l 682 -105 l 682 -37 l 583 -37 l 583 299 l 464 299 l 147 -30 l 147 -105 z m 229 -37 l 506 247 l 506 -37 z "},"₅":{"ha":764,"x_min":0,"x_max":0,"o":"m 409 -217 b 672 -49 564 -217 672 -160 b 445 115 672 74 569 115 b 269 80 375 115 314 100 l 285 228 l 601 228 l 601 299 l 220 299 l 190 43 l 253 8 b 429 47 297 28 354 47 b 589 -54 503 47 589 35 b 419 -146 589 -116 519 -146 b 180 -89 318 -146 232 -115 l 148 -160 b 409 -217 188 -179 274 -217 z "},"₆":{"ha":764,"x_min":0,"x_max":0,"o":"m 419 -217 b 678 -37 585 -217 678 -144 b 463 131 678 88 577 131 b 219 28 360 131 269 92 l 218 39 b 453 242 218 169 313 242 b 596 215 503 242 549 234 l 628 281 b 456 313 597 296 519 313 b 136 33 249 313 136 206 b 419 -217 136 -139 249 -217 z m 231 -44 b 460 65 273 16 377 65 b 595 -36 535 65 595 27 b 421 -149 595 -120 512 -149 b 231 -44 338 -149 261 -120 z "},"₇":{"ha":764,"x_min":0,"x_max":0,"o":"m 272 -164 l 337 -217 l 667 207 l 667 299 l 158 299 l 158 228 l 584 228 z "},"₈":{"ha":764,"x_min":0,"x_max":0,"o":"m 132 -81 b 392 -217 132 -182 247 -217 b 653 -81 535 -217 653 -175 b 506 62 653 1 581 53 b 622 174 575 73 622 104 b 392 313 622 260 534 313 b 163 176 267 313 163 265 b 278 56 163 104 216 69 b 132 -81 196 40 132 -4 z m 219 -73 b 392 23 219 -12 297 23 b 565 -73 488 23 565 -12 b 392 -151 565 -118 510 -151 b 219 -73 276 -151 219 -119 z m 251 171 b 392 251 251 222 301 251 b 534 171 487 251 534 222 b 392 88 534 119 461 88 b 251 171 325 88 251 119 z "},"₉":{"ha":764,"x_min":0,"x_max":0,"o":"m 359 -217 b 671 49 571 -217 671 -120 b 417 313 671 235 550 313 b 151 126 284 313 151 263 b 356 -37 151 -10 275 -37 b 588 47 467 -37 547 6 b 588 26 588 40 588 33 b 372 -147 580 -88 502 -147 b 202 -111 306 -147 255 -134 l 174 -183 b 359 -217 208 -199 271 -217 z m 235 130 b 403 247 235 202 298 247 b 581 113 484 247 559 210 b 365 33 535 67 458 33 b 235 130 294 33 235 59 z "},"₍":{"ha":382,"x_min":0,"x_max":0,"o":"m 129 60 b 243 -246 129 -100 199 -191 l 307 -199 b 213 60 267 -143 213 -51 b 308 296 213 167 255 240 l 245 342 b 129 60 192 290 129 211 z "},"₎":{"ha":382,"x_min":0,"x_max":0,"o":"m 121 -199 l 185 -246 b 299 60 229 -191 299 -100 b 183 342 299 211 236 290 l 120 296 b 215 60 173 240 215 167 b 121 -199 215 -51 160 -143 z "},"¹":{"ha":764,"x_min":0,"x_max":0,"o":"m 162 582 l 162 508 l 649 508 l 649 582 l 457 582 l 457 1010 l 387 1010 l 198 962 l 209 890 l 377 927 l 377 582 z "},"²":{"ha":764,"x_min":0,"x_max":0,"o":"m 146 573 l 146 508 l 667 508 l 667 580 l 233 580 l 233 587 b 409 724 233 610 242 676 l 506 752 b 653 896 593 777 653 815 b 428 1025 653 983 567 1025 b 173 969 342 1025 237 1000 l 203 898 b 426 952 279 935 364 952 b 563 889 516 952 563 931 b 469 814 563 860 544 835 l 381 789 b 146 573 185 733 146 658 z "},"³":{"ha":764,"x_min":0,"x_max":0,"o":"m 367 494 b 655 662 533 494 655 535 b 522 793 655 728 608 789 b 614 899 585 810 614 845 b 414 1025 614 998 515 1025 b 160 978 297 1025 213 998 l 181 911 b 408 956 239 935 335 956 b 526 894 497 956 526 929 b 377 806 526 838 490 805 l 253 808 l 253 739 l 410 739 b 567 656 513 739 567 719 b 381 567 567 601 503 567 b 144 612 282 567 206 590 l 122 543 b 367 494 167 521 256 494 z "},"⁰":{"ha":764,"x_min":0,"x_max":0,"o":"m 107 755 b 380 494 107 577 230 494 b 657 758 529 494 657 572 b 389 1025 657 943 532 1025 b 107 755 247 1025 107 951 z m 199 757 b 385 949 199 883 283 949 b 565 757 483 949 565 883 b 385 569 565 633 483 569 b 199 757 283 569 199 633 z "},"⁴":{"ha":764,"x_min":0,"x_max":0,"o":"m 506 607 l 506 508 l 583 508 l 583 607 l 682 607 l 682 675 l 583 675 l 583 1010 l 464 1010 l 147 682 l 147 607 z m 229 675 l 506 959 l 506 675 z "},"⁵":{"ha":764,"x_min":0,"x_max":0,"o":"m 409 494 b 672 663 564 494 672 551 b 445 827 672 785 569 827 b 269 792 375 827 314 812 l 285 940 l 601 940 l 601 1010 l 220 1010 l 190 755 l 253 719 b 429 759 297 740 354 759 b 589 658 503 759 589 747 b 419 566 589 596 519 566 b 180 623 318 566 232 597 l 148 552 b 409 494 188 533 274 494 z "},"⁶":{"ha":764,"x_min":0,"x_max":0,"o":"m 419 494 b 678 674 585 494 678 568 b 463 842 678 800 577 842 b 219 740 360 842 269 804 l 218 751 b 453 954 218 881 313 954 b 596 927 503 954 549 946 l 628 993 b 456 1025 597 1008 519 1025 b 136 744 249 1025 136 917 b 419 494 136 573 249 494 z m 231 668 b 460 776 273 728 377 776 b 595 676 535 776 595 739 b 421 563 595 592 512 563 b 231 668 338 563 261 592 z "},"⁷":{"ha":764,"x_min":0,"x_max":0,"o":"m 272 548 l 337 494 l 667 919 l 667 1010 l 158 1010 l 158 940 l 584 940 z "},"⁸":{"ha":764,"x_min":0,"x_max":0,"o":"m 132 631 b 392 494 132 530 247 494 b 653 631 535 494 653 537 b 506 774 653 713 581 765 b 622 885 575 785 622 816 b 392 1025 622 972 534 1025 b 163 888 267 1025 163 977 b 278 768 163 816 216 781 b 132 631 196 752 132 708 z m 219 639 b 392 735 219 700 297 735 b 565 639 488 735 565 699 b 392 560 565 594 510 560 b 219 639 276 560 219 592 z m 251 883 b 392 963 251 933 301 963 b 534 883 487 963 534 933 b 392 800 534 831 461 800 b 251 883 325 800 251 831 z "},"⁹":{"ha":764,"x_min":0,"x_max":0,"o":"m 359 494 b 671 761 571 494 671 592 b 417 1025 671 947 550 1025 b 151 838 284 1025 151 974 b 356 675 151 702 275 675 b 588 758 467 675 547 718 b 588 738 588 751 588 745 b 372 565 580 624 502 565 b 202 601 306 565 255 578 l 174 529 b 359 494 208 513 271 494 z m 235 842 b 403 958 235 914 298 958 b 581 825 484 958 559 922 b 365 745 535 779 458 745 b 235 842 294 745 235 771 z "},"⁽":{"ha":382,"x_min":0,"x_max":0,"o":"m 129 772 b 243 466 129 612 199 521 l 307 513 b 213 772 267 569 213 660 b 308 1008 213 879 255 951 l 245 1053 b 129 772 192 1001 129 923 z "},"⁾":{"ha":382,"x_min":0,"x_max":0,"o":"m 121 513 l 185 466 b 299 772 229 521 299 612 b 183 1053 299 923 236 1001 l 120 1008 b 215 772 173 951 215 879 b 121 513 215 660 160 569 z "},"⁺":{"ha":382,"x_min":0,"x_max":0,"o":"m 154 722 l 154 597 l 231 597 l 231 722 l 347 722 l 347 794 l 231 794 l 231 909 l 154 909 l 154 794 l 35 794 l 35 722 z "},"⁻":{"ha":382,"x_min":0,"x_max":0,"o":"m 35 795 l 35 719 l 347 719 l 347 795 z "},"⁼":{"ha":382,"x_min":0,"x_max":0,"o":"m 35 717 l 35 642 l 347 642 l 347 717 z m 35 794 l 347 794 l 347 870 l 35 870 z "},"ẞ":{"ha":2168,"x_min":0,"x_max":0,"o":"m 1241 161 l 1202 71 b 1611 -16 1308 15 1446 -16 b 2064 269 1899 -16 2064 63 b 1668 514 2064 483 1861 503 b 1326 656 1493 524 1326 525 b 1641 817 1326 768 1425 817 b 1974 763 1778 817 1888 787 l 2004 853 b 1637 910 1924 880 1794 910 b 1224 656 1399 910 1224 837 b 1642 417 1224 435 1442 426 b 1967 265 1811 409 1967 401 b 1617 77 1967 127 1833 77 b 1241 161 1470 77 1361 103 z m 118 71 b 527 -16 224 15 362 -16 b 980 269 815 -16 980 63 b 584 514 980 483 777 503 b 242 656 409 524 242 525 b 557 817 242 768 341 817 b 890 763 694 817 804 787 l 920 853 b 553 910 840 880 710 910 b 140 656 315 910 140 837 b 558 417 140 435 358 426 b 883 265 727 409 883 401 b 533 77 883 127 749 77 b 157 161 386 77 277 103 z "}," ":{"ha":694,"x_min":0,"x_max":0,"o":""}," ":{"ha":486,"x_min":0,"x_max":0,"o":""}," ":{"ha":1389,"x_min":0,"x_max":0,"o":""}}}
